<?xml version="1.0" encoding="UTF-8" standalone="no"?>
<!-- Created with Inkscape (http://www.inkscape.org/) -->
<svg
   xmlns:dc="http://purl.org/dc/elements/1.1/"
   xmlns:cc="http://web.resource.org/cc/"
   xmlns:rdf="http://www.w3.org/1999/02/22-rdf-syntax-ns#"
   xmlns:svg="http://www.w3.org/2000/svg"
   xmlns="http://www.w3.org/2000/svg"
   xmlns:xlink="http://www.w3.org/1999/xlink"
   xmlns:sodipodi="http://sodipodi.sourceforge.net/DTD/sodipodi-0.dtd"
   xmlns:inkscape="http://www.inkscape.org/namespaces/inkscape"
   width="744.09448819"
   height="1052.3622047"
   id="svg2"
   sodipodi:version="0.32"
   inkscape:version="0.44.1"
   sodipodi:docbase="C:\WWW"
   sodipodi:docname="Ikoner.svg">
  <defs
     id="defs4">
    <linearGradient
       id="linearGradient10785">
      <stop
         style="stop-color:white;stop-opacity:1;"
         offset="0"
         id="stop10787" />
      <stop
         style="stop-color:white;stop-opacity:0;"
         offset="1"
         id="stop10789" />
    </linearGradient>
    <linearGradient
       id="linearGradient5431">
      <stop
         style="stop-color:#b86cb3;stop-opacity:1;"
         offset="0"
         id="stop5433" />
      <stop
         id="stop6332"
         offset="0.75"
         style="stop-color:white;stop-opacity:0.49803922;" />
      <stop
         style="stop-color:white;stop-opacity:0.24705882;"
         offset="0.84821427"
         id="stop6334" />
      <stop
         style="stop-color:white;stop-opacity:0;"
         offset="1"
         id="stop5435" />
    </linearGradient>
    <pattern
       patternUnits="userSpaceOnUse"
       width="65.841599"
       height="101.75696"
       patternTransform="matrix(1,0,0,0.853986,314.7299,158.3941)"
       id="pattern4659">
      <rect
         y="0.5"
         x="0.5"
         height="100.75696"
         width="64.841599"
         id="rect3772"
         style="opacity:1;fill:white;fill-opacity:1;stroke:#9c0;stroke-width:1;stroke-linecap:butt;stroke-linejoin:miter;stroke-miterlimit:4;stroke-dasharray:none;stroke-opacity:1" />
    </pattern>
  </defs>
  <sodipodi:namedview
     id="base"
     pagecolor="#ffffff"
     bordercolor="#666666"
     borderopacity="1.0"
     gridtolerance="10000"
     guidetolerance="10"
     objecttolerance="10"
     inkscape:pageopacity="0.0"
     inkscape:pageshadow="2"
     inkscape:zoom="1"
     inkscape:cx="864.68896"
     inkscape:cy="739.47622"
     inkscape:document-units="px"
     inkscape:current-layer="layer1"
     inkscape:window-width="1440"
     inkscape:window-height="844"
     inkscape:window-x="-4"
     inkscape:window-y="-4"
     showguides="true"
     inkscape:guide-bbox="true" />
  <metadata
     id="metadata7">
    <rdf:RDF>
      <cc:Work
         rdf:about="">
        <dc:format>image/svg+xml</dc:format>
        <dc:type
           rdf:resource="http://purl.org/dc/dcmitype/StillImage" />
      </cc:Work>
    </rdf:RDF>
  </metadata>
  <g
     inkscape:label="Layer 1"
     inkscape:groupmode="layer"
     id="layer1">
    <path
       style="opacity:1;fill:#c4c4c4;fill-opacity:1;stroke:#4d4d4d;stroke-width:0.99999934;stroke-linecap:butt;stroke-linejoin:miter;stroke-miterlimit:4;stroke-dasharray:none;stroke-opacity:1"
       d="M 494.9349,202.18852 C 492.2778,202.18851 490.0647,205.64427 489.5612,210.20933 C 489.5241,210.18273 489.4879,210.16349 489.4485,210.16349 C 489.133,210.16352 488.8848,211.0793 488.8848,212.18015 C 488.8848,213.28098 489.133,214.15096 489.4485,214.15096 C 489.4879,214.15096 489.524,214.13173 489.5612,214.10514 C 489.7449,215.78919 490.1764,217.33339 490.7637,218.59679 C 488.6796,219.33236 486.9498,220.59095 485.8785,222.17178 L 485.8785,224.18843 L 503.8785,224.18843 L 503.8785,222.03426 C 502.8049,220.5316 501.1534,219.30612 499.1436,218.59679 C 499.731,217.33338 500.1248,215.78917 500.3085,214.10514 C 500.3457,214.13175 500.3819,214.15096 500.4213,214.15096 C 500.7367,214.15096 500.985,213.28098 500.985,212.18015 C 500.985,211.07932 500.7367,210.16349 500.4213,210.16349 C 500.3819,210.16352 500.3457,210.18275 500.3085,210.20933 C 499.8051,205.64426 497.592,202.18852 494.9349,202.18852 z "
       id="path2061" />
    <image
       y="2.0617037"
       x="-770.82928"
       id="image1949"
       height="736"
       width="761"
       sodipodi:absref="C:\WWW\Framsida.bmp"
       xlink:href="Framsida.bmp"
       style="fill:white;stroke:#c4c4c4;stroke-opacity:1" />
    <path
       sodipodi:type="arc"
       style="opacity:1;fill:#d5e0e0;fill-opacity:1;stroke:black;stroke-width:1;stroke-linecap:butt;stroke-linejoin:round;stroke-miterlimit:4;stroke-dasharray:none"
       id="path6336"
       sodipodi:cx="-1553.7778"
       sodipodi:cy="-144.77362"
       sodipodi:rx="73.827164"
       sodipodi:ry="73.827164"
       d="M -1479.9507 -144.77362 A 73.827164 73.827164 0 1 1  -1627.605,-144.77362 A 73.827164 73.827164 0 1 1  -1479.9507 -144.77362 z"
       transform="translate(1593.418,-110.7242)" />
    <path
       sodipodi:type="arc"
       style="opacity:1;fill:#c4c4c4;fill-opacity:1;stroke:black;stroke-width:0;stroke-linecap:butt;stroke-linejoin:round;stroke-miterlimit:4;stroke-dasharray:none"
       id="path7223"
       sodipodi:cx="-1553.7778"
       sodipodi:cy="-144.77362"
       sodipodi:rx="73.827164"
       sodipodi:ry="73.827164"
       d="M -1479.9507 -144.77362 A 73.827164 73.827164 0 1 1  -1627.605,-144.77362 A 73.827164 73.827164 0 1 1  -1479.9507 -144.77362 z"
       transform="matrix(1.071301,0,0,1.071301,2223.75,-100.4017)" />
    <path
       sodipodi:type="arc"
       style="opacity:1;fill:#9c0;fill-opacity:1;stroke:black;stroke-width:0;stroke-linecap:butt;stroke-linejoin:round;stroke-miterlimit:4;stroke-dasharray:none"
       id="path12642"
       sodipodi:cx="-1386.2469"
       sodipodi:cy="35.251068"
       sodipodi:rx="77.802467"
       sodipodi:ry="77.802467"
       d="M -1308.4445 35.251068 A 77.802467 77.802467 0 1 1  -1464.0494,35.251068 A 77.802467 77.802467 0 1 1  -1308.4445 35.251068 z"
       transform="translate(1599.069,-290.7489)" />
    <path
       sodipodi:type="arc"
       style="opacity:1;fill:#d5e0e0;fill-opacity:1;stroke:#9c0;stroke-width:3.06437016;stroke-linecap:butt;stroke-linejoin:round;stroke-miterlimit:4;stroke-dasharray:none;stroke-opacity:1"
       id="path13555"
       sodipodi:cx="-1553.7778"
       sodipodi:cy="-144.77362"
       sodipodi:rx="73.827164"
       sodipodi:ry="73.827164"
       d="M -1479.9507 -144.77362 A 73.827164 73.827164 0 1 1  -1627.605,-144.77362 A 73.827164 73.827164 0 1 1  -1479.9507 -144.77362 z"
       transform="matrix(0.978994,0,0,0.978994,1907.143,-113.7653)" />
    <path
       sodipodi:type="arc"
       style="opacity:1;fill:#d5e0e0;fill-opacity:1;stroke:#c4c4c4;stroke-width:3.06437016;stroke-linecap:butt;stroke-linejoin:round;stroke-miterlimit:4;stroke-dasharray:none;stroke-opacity:1"
       id="path13557"
       sodipodi:cx="-1553.7778"
       sodipodi:cy="-144.77362"
       sodipodi:rx="73.827164"
       sodipodi:ry="73.827164"
       d="M -1479.9507 -144.77362 A 73.827164 73.827164 0 1 1  -1627.605,-144.77362 A 73.827164 73.827164 0 1 1  -1479.9507 -144.77362 z"
       transform="matrix(0.978994,0,0,0.978994,2253.508,-113.7653)" />
    <path
       id="path16537"
       style="fill:#e9f4c9;fill-opacity:1;stroke:#9c0;stroke-width:3.06437016;stroke-linecap:butt;stroke-linejoin:round;stroke-miterlimit:4;stroke-opacity:1"
       d="M 111.91614,-82.315597 C 111.91614,-42.419047 79.536275,-10.039247 39.639773,-10.039247 C -0.25682667,-10.039247 -32.636627,-42.419047 -32.636627,-82.315597 C -32.636627,-122.21214 -0.25682667,-154.59194 39.639773,-154.59194 C 79.536275,-154.59194 111.91614,-122.21214 111.91614,-82.315597 z M 18.174873,-115.32193 L 18.174873,-84.597547 L -5.1946267,-84.597547 L 39.406673,-41.542597 L 39.647773,-41.309387 L 39.872773,-41.542597 L 84.474075,-84.597547 L 61.104573,-84.597547 L 61.104573,-115.32193 L 56.138173,-115.32193 L 23.141273,-115.32193 L 18.174873,-115.32193 z " />
    <path
       id="path16544"
       style="fill:#d5e0e0;fill-opacity:1;stroke:#9c0;stroke-width:3.06437016;stroke-linecap:butt;stroke-linejoin:round;stroke-miterlimit:4;stroke-opacity:1"
       d="M 458.28057,-82.315597 C 458.28057,-42.419047 425.90077,-10.039247 386.00427,-10.039247 C 346.10767,-10.039247 313.72787,-42.419047 313.72787,-82.315597 C 313.72787,-122.21214 346.10767,-154.59194 386.00427,-154.59194 C 425.90077,-154.59194 458.28057,-122.21214 458.28057,-82.315597 z M 364.53937,-115.32193 L 364.53937,-84.597547 L 341.16987,-84.597547 L 385.77117,-41.542597 L 386.01227,-41.309387 L 386.23727,-41.542597 L 430.83857,-84.597547 L 407.46907,-84.597547 L 407.46907,-115.32193 L 402.50267,-115.32193 L 369.50577,-115.32193 L 364.53937,-115.32193 z " />
    <g
       id="g1901"
       transform="translate(1560.965,-605.3938)">
      <path
         transform="matrix(0.978994,0,0,0.978994,519.3614,664.8107)"
         d="M -1479.9507 -144.77362 A 73.827164 73.827164 0 1 1  -1627.605,-144.77362 A 73.827164 73.827164 0 1 1  -1479.9507 -144.77362 z"
         sodipodi:ry="73.827164"
         sodipodi:rx="73.827164"
         sodipodi:cy="-144.77362"
         sodipodi:cx="-1553.7778"
         id="path16546"
         style="opacity:1;fill:#d5e0e0;fill-opacity:1;stroke:#c4c4c4;stroke-width:3.06437016;stroke-linecap:butt;stroke-linejoin:round;stroke-miterlimit:4;stroke-dasharray:none;stroke-opacity:1"
         sodipodi:type="arc" />
      <path
         sodipodi:nodetypes="cccccccccccc"
         id="path16548"
         d="M -1023.2426,490.07196 L -1023.2426,520.79634 L -1046.6121,520.79634 L -1002.0108,563.85129 L -1001.7697,564.0845 L -1001.5447,563.85129 L -956.94338,520.79634 L -980.31288,520.79634 L -980.31288,490.07196 L -985.27928,490.07196 L -1018.2762,490.07196 L -1023.2426,490.07196 z "
         style="fill:#c4c4c4;fill-opacity:1;fill-rule:evenodd;stroke:#9c0;stroke-width:0.48977733px;stroke-linecap:butt;stroke-linejoin:miter;stroke-opacity:1" />
    </g>
    <path
       id="path16550"
       style="fill:#e9f4c9;fill-opacity:1;stroke:#9c0;stroke-width:3.06437016;stroke-linecap:butt;stroke-linejoin:round;stroke-miterlimit:4;stroke-opacity:1"
       d="M 804.64502,-82.315607 C 804.64502,-42.419037 772.26522,-10.039237 732.36872,-10.039237 C 692.47212,-10.039237 660.09232,-42.419037 660.09232,-82.315607 C 660.09232,-122.21215 692.47212,-154.59195 732.36872,-154.59195 C 772.26522,-154.59195 804.64502,-122.21215 804.64502,-82.315607 z M 710.90382,-115.32194 L 710.90382,-84.597557 L 687.53432,-84.597557 L 732.13562,-41.542587 L 732.37672,-41.309377 L 732.60172,-41.542587 L 777.20302,-84.597557 L 753.83352,-84.597557 L 753.83352,-115.32194 L 748.86712,-115.32194 L 715.87022,-115.32194 L 710.90382,-115.32194 z " />
    <g
       id="g2046"
       transform="translate(1550.798,-760.9988)">
      <g
         id="g2058">
        <path
           sodipodi:type="arc"
           style="opacity:1;fill:#e9f4c9;fill-opacity:1;stroke:#9c0;stroke-width:3.06437016;stroke-linecap:butt;stroke-linejoin:round;stroke-miterlimit:4;stroke-dasharray:none;stroke-opacity:1"
           id="path16552"
           sodipodi:cx="-1553.7778"
           sodipodi:cy="-144.77362"
           sodipodi:rx="73.827164"
           sodipodi:ry="73.827164"
           d="M -1479.9507 -144.77362 A 73.827164 73.827164 0 1 1  -1627.605,-144.77362 A 73.827164 73.827164 0 1 1  -1479.9507 -144.77362 z"
           transform="matrix(0.978994,0,0,0.978994,183.1639,820.4157)" />
        <path
           style="fill:#9c0;fill-opacity:1;fill-rule:evenodd;stroke:#777e7e;stroke-width:0.48977733px;stroke-linecap:butt;stroke-linejoin:miter;stroke-opacity:1"
           d="M -1359.4401,645.6769 L -1359.4401,676.40128 L -1382.8096,676.40128 L -1338.2083,719.45623 L -1337.9672,719.68944 L -1337.7422,719.45623 L -1293.1409,676.40128 L -1316.5104,676.40128 L -1316.5104,645.6769 L -1321.4768,645.6769 L -1354.4737,645.6769 L -1359.4401,645.6769 z "
           id="path16554"
           sodipodi:nodetypes="cccccccccccc" />
      </g>
    </g>
    <g
       id="g2068"
       transform="translate(-330.7425,46.73559)">
      <path
         transform="matrix(0.978994,0,0,0.978994,2004.626,386.8334)"
         d="M -1479.9507 -144.77362 A 73.827164 73.827164 0 1 1  -1627.605,-144.77362 A 73.827164 73.827164 0 1 1  -1479.9507 -144.77362 z"
         sodipodi:ry="73.827164"
         sodipodi:rx="73.827164"
         sodipodi:cy="-144.77362"
         sodipodi:cx="-1553.7778"
         id="path2824"
         style="fill:#e9f4c9;fill-opacity:1;stroke:#9c0;stroke-width:3.06437016;stroke-linecap:butt;stroke-linejoin:round;stroke-miterlimit:4;stroke-dasharray:none;stroke-opacity:1"
         sodipodi:type="arc" />
      <path
         sodipodi:nodetypes="cccccccccccc"
         id="path2826"
         d="M 462.0219,212.09472 L 462.0219,242.8191 L 438.6524,242.8191 L 483.2537,285.87405 L 483.4948,286.10726 L 483.7198,285.87405 L 528.3211,242.8191 L 504.9516,242.8191 L 504.9516,212.09472 L 499.9852,212.09472 L 466.9883,212.09472 L 462.0219,212.09472 z "
         style="fill:#9c0;fill-opacity:1;fill-rule:evenodd;stroke:#c4c4c4;stroke-width:1;stroke-linecap:butt;stroke-linejoin:miter;stroke-miterlimit:4;stroke-dasharray:none;stroke-opacity:1" />
    </g>
    <path
       style="opacity:1;fill:#9c0;fill-opacity:1;stroke:black;stroke-width:1;stroke-linecap:butt;stroke-linejoin:miter;stroke-miterlimit:19.70000076;stroke-dasharray:none;stroke-opacity:1"
       d="M -154.22352,-86.398645 C -154.19101,-83.237905 -153.76588,-80.063045 -152.94227,-76.898645 C -152.78,-76.275195 -152.60527,-75.644355 -152.41102,-75.023645 C -152.21967,-74.412205 -152.00881,-73.787755 -151.78602,-73.179895 C -151.71842,-72.995445 -151.66904,-72.801455 -151.59852,-72.617395 C -151.20535,-71.591195 -150.75322,-70.622235 -150.28602,-69.648645 C -146.86601,-62.521755 -141.55209,-56.827175 -135.16102,-52.961145 C -135.0691,-52.905115 -134.97218,-52.860195 -134.87977,-52.804895 C -134.63295,-52.658285 -134.3796,-52.508575 -134.12977,-52.367395 C -133.90157,-52.237585 -133.67326,-52.117775 -133.44227,-51.992395 C -132.8736,-51.685725 -132.30616,-51.395945 -131.72352,-51.117395 C -131.14732,-50.841925 -130.56229,-50.583625 -129.97352,-50.336145 C -129.39447,-50.092745 -128.81367,-49.833255 -128.22352,-49.617395 C -128.15279,-49.591455 -128.07569,-49.580445 -128.00477,-49.554895 C -127.68447,-49.439785 -127.35931,-49.318055 -127.03602,-49.211145 C -126.60778,-49.069355 -126.15808,-48.963585 -125.72352,-48.836145 C -125.60625,-48.801785 -125.49738,-48.744425 -125.37977,-48.711145 C -125.0725,-48.624085 -124.75252,-48.540935 -124.44227,-48.461145 C -123.81203,-48.299235 -123.17464,-48.154625 -122.53602,-48.023645 C -121.89103,-47.891365 -121.25086,-47.780095 -120.59852,-47.679895 C -119.93262,-47.577615 -119.27083,-47.498185 -118.59852,-47.429895 C -117.26939,-47.294875 -115.91412,-47.210075 -114.56727,-47.211145 C -113.89066,-47.211685 -113.21525,-47.237935 -112.53602,-47.273645 C -111.85695,-47.309345 -111.18521,-47.358505 -110.50477,-47.429895 C -110.07604,-47.474875 -109.6524,-47.526815 -109.22352,-47.586145 C -108.99306,-47.617205 -108.76521,-47.644885 -108.53602,-47.679895 C -108.42024,-47.698005 -108.30803,-47.723225 -108.19227,-47.742395 C -107.53387,-47.848895 -106.87067,-47.978865 -106.22352,-48.117395 C -105.56777,-48.257765 -104.92933,-48.413765 -104.28602,-48.586145 C -103.63301,-48.761115 -102.98779,-48.941605 -102.34852,-49.148645 C -101.70606,-49.356715 -101.06992,-49.596625 -100.44227,-49.836145 C -99.170246,-50.321575 -97.928886,-50.852345 -96.723516,-51.461145 C -94.359366,-52.655215 -92.130446,-54.086845 -90.067266,-55.711145 C -88.545006,-56.909585 -87.116506,-58.212535 -85.786016,-59.617395 C -79.067686,-66.711225 -74.942266,-76.268375 -74.942266,-86.804895 C -74.942266,-88.329605 -75.054626,-89.825675 -75.223516,-91.304895 C -75.528326,-93.974585 -76.099606,-96.574335 -76.911016,-99.054895 C -77.126596,-99.713945 -77.349676,-100.34905 -77.598516,-100.9924 C -77.780736,-101.46802 -77.962556,-101.93433 -78.161016,-102.39865 C -78.232996,-102.56537 -78.305566,-102.73312 -78.379766,-102.89865 C -78.571946,-103.33178 -78.767486,-103.757 -78.973516,-104.1799 C -79.222876,-104.68695 -79.484626,-105.18527 -79.754766,-105.6799 C -79.794656,-105.75358 -79.839446,-105.8253 -79.879766,-105.89865 C -79.994796,-106.10613 -80.104886,-106.31845 -80.223516,-106.52365 C -80.428986,-106.88197 -80.632946,-107.23625 -80.848516,-107.58615 C -80.888556,-107.65071 -80.933116,-107.70933 -80.973516,-107.77365 C -81.274586,-108.2561 -81.591276,-108.71389 -81.911016,-109.1799 C -82.069096,-109.40916 -82.217036,-109.64164 -82.379766,-109.8674 C -82.590146,-110.16039 -82.818366,-110.45631 -83.036016,-110.7424 C -83.218156,-110.98102 -83.411146,-111.2268 -83.598516,-111.46115 C -83.817876,-111.73615 -84.028736,-112.00542 -84.254766,-112.27365 C -84.450216,-112.50565 -84.647916,-112.7337 -84.848516,-112.96115 C -85.072496,-113.2147 -85.306096,-113.46404 -85.536016,-113.71115 C -85.752166,-113.94407 -85.970686,-114.17093 -86.192266,-114.39865 C -86.419836,-114.63174 -86.646926,-114.8592 -86.879766,-115.08615 C -90.372416,-118.49036 -94.456696,-121.20031 -98.879766,-123.11739 L -104.50477,-110.46115 C -101.62234,-109.2311 -98.972356,-107.47721 -96.692266,-105.27365 C -96.526496,-105.11344 -96.353976,-104.93863 -96.192266,-104.77365 C -96.060476,-104.63905 -95.914856,-104.50484 -95.786016,-104.3674 C -95.624826,-104.1954 -95.474016,-104.013 -95.317266,-103.83615 C -95.197646,-103.70124 -95.090336,-103.5673 -94.973516,-103.4299 C -94.812786,-103.24061 -94.660366,-103.06191 -94.504766,-102.8674 C -94.236076,-102.53152 -93.976306,-102.18736 -93.723516,-101.83615 C -93.470726,-101.48494 -93.209656,-101.10861 -92.973516,-100.7424 C -92.501236,-100.00998 -92.062216,-99.251655 -91.661016,-98.461145 C -91.259816,-97.670635 -90.922656,-96.869665 -90.598516,-96.023645 C -89.328906,-92.709875 -88.764466,-89.268645 -88.879766,-85.929895 C -89.052726,-80.921765 -90.695266,-76.082935 -93.536016,-72.023645 C -94.009476,-71.347095 -94.528416,-70.716795 -95.067266,-70.086145 C -95.336686,-69.770825 -95.625716,-69.451445 -95.911016,-69.148645 C -96.481626,-68.543035 -97.060006,-67.949975 -97.692266,-67.398645 C -98.307466,-66.862195 -98.958516,-66.347245 -99.629766,-65.867395 C -99.679086,-65.832135 -99.736396,-65.808585 -99.786016,-65.773645 C -99.918656,-65.680315 -100.0578,-65.583275 -100.19227,-65.492395 C -100.72851,-65.130235 -101.27969,-64.785085 -101.84852,-64.461145 C -102.97067,-63.822095 -104.16836,-63.280995 -105.41102,-62.804895 C -105.82524,-62.646195 -106.24397,-62.472115 -106.66102,-62.336145 C -106.74615,-62.308385 -106.82579,-62.269215 -106.91102,-62.242395 C -107.24126,-62.139585 -107.57524,-62.050835 -107.91102,-61.961145 C -107.98533,-61.941015 -108.0554,-61.918075 -108.12977,-61.898645 C -108.4677,-61.811615 -108.81788,-61.753375 -109.16102,-61.679895 C -109.23584,-61.663625 -109.30491,-61.632965 -109.37977,-61.617395 C -109.72374,-61.546935 -110.06221,-61.486455 -110.41102,-61.429895 C -110.83239,-61.360245 -111.27086,-61.290565 -111.69227,-61.242395 C -111.77687,-61.232725 -111.85769,-61.219955 -111.94227,-61.211145 C -112.27923,-61.176885 -112.60161,-61.169745 -112.94227,-61.148645 C -113.26064,-61.128215 -113.59337,-61.094605 -113.91102,-61.086145 C -114.12861,-61.080345 -114.35014,-61.086385 -114.56727,-61.086145 C -115.01085,-61.086145 -115.44167,-61.095155 -115.87977,-61.117395 C -116.16146,-61.131695 -116.44429,-61.156585 -116.72352,-61.179895 C -116.8824,-61.193175 -117.03387,-61.194925 -117.19227,-61.211145 C -117.44528,-61.236875 -117.69147,-61.271875 -117.94227,-61.304895 C -118.11618,-61.327985 -118.30032,-61.340785 -118.47352,-61.367395 C -118.59739,-61.386345 -118.72523,-61.409185 -118.84852,-61.429895 C -119.15034,-61.480765 -119.45544,-61.555895 -119.75477,-61.617395 C -120.17317,-61.703105 -120.56277,-61.792855 -120.97352,-61.898645 C -121.1824,-61.952435 -121.39173,-61.996015 -121.59852,-62.054895 C -121.79683,-62.111145 -121.99548,-62.181455 -122.19227,-62.242395 C -122.38736,-62.303125 -122.59295,-62.364665 -122.78602,-62.429895 C -122.98425,-62.496505 -123.18328,-62.546025 -123.37977,-62.617395 C -123.40104,-62.625155 -123.42102,-62.640835 -123.44227,-62.648645 C -123.82676,-62.790035 -124.19163,-62.958405 -124.56727,-63.117395 C -124.73775,-63.189555 -124.89869,-63.260435 -125.06727,-63.336145 C -125.10947,-63.354965 -125.15017,-63.379595 -125.19227,-63.398645 C -125.52887,-63.552055 -125.86361,-63.700075 -126.19227,-63.867395 C -126.40103,-63.972695 -126.61138,-64.068945 -126.81727,-64.179895 C -126.85849,-64.202295 -126.90119,-64.219775 -126.94227,-64.242395 C -129.08039,-65.419735 -131.04192,-66.904545 -132.75477,-68.617395 C -134.20957,-70.072195 -135.49279,-71.693575 -136.56727,-73.461145 C -136.99706,-74.168175 -137.3934,-74.899135 -137.75477,-75.648645 C -138.29683,-76.772905 -138.75381,-77.940965 -139.12977,-79.148645 C -139.8817,-81.564005 -140.28602,-84.143405 -140.28602,-86.804895 C -140.28602,-89.069865 -139.99429,-91.275395 -139.44227,-93.367395 C -139.22146,-94.204195 -138.96198,-95.003725 -138.66102,-95.804895 C -138.01365,-97.528225 -137.17764,-99.151855 -136.19227,-100.6799 L -131.28602,-89.554895 L -119.00477,-106.3674 L -106.69227,-123.21114 L -127.41102,-125.42989 L -148.12977,-127.67989 L -142.50477,-114.89865 C -145.85697,-111.56783 -148.60655,-107.65106 -150.59852,-103.3049 L -150.62977,-103.33615 C -150.76601,-103.03955 -150.87587,-102.72972 -151.00477,-102.4299 C -151.26072,-101.83456 -151.4969,-101.22458 -151.72352,-100.6174 C -152.18689,-99.375915 -152.57341,-98.119925 -152.91102,-96.836145 C -153.24908,-95.550665 -153.51583,-94.248085 -153.72352,-92.929895 C -154.06196,-90.781875 -154.24616,-88.599615 -154.22352,-86.398645 z "
       id="path2867" />
    <g
       id="g7397"
       transform="translate(3.9555,0)">
      <path
         transform="matrix(0.978994,0,0,0.978994,1669.928,271.8229)"
         d="M -1479.9507 -144.77362 A 73.827164 73.827164 0 1 1  -1627.605,-144.77362 A 73.827164 73.827164 0 1 1  -1479.9507 -144.77362 z"
         sodipodi:ry="73.827164"
         sodipodi:rx="73.827164"
         sodipodi:cy="-144.77362"
         sodipodi:cx="-1553.7778"
         id="path11755"
         style="opacity:1;fill:#e9f4c9;fill-opacity:1;stroke:#9c0;stroke-width:3.06437016;stroke-linecap:butt;stroke-linejoin:round;stroke-miterlimit:4;stroke-dasharray:none;stroke-opacity:1"
         sodipodi:type="arc" />
      <g
         transform="translate(-117.8668,4.608749)"
         id="g7393">
        <path
           style="opacity:1;fill:#9c0;fill-opacity:1;stroke:black;stroke-width:1;stroke-linecap:butt;stroke-linejoin:miter;stroke-miterlimit:19.70000076;stroke-dasharray:none;stroke-opacity:1"
           d="M 266.28125,85.75 C 263.1205,85.782512 259.94565,86.207645 256.78125,87.03125 C 256.15779,87.193516 255.52696,87.368252 254.90625,87.5625 C 254.2948,87.753846 253.67036,87.964716 253.0625,88.1875 C 252.87804,88.255099 252.68406,88.304481 252.5,88.375 C 251.47379,88.768166 250.50484,89.2203 249.53125,89.6875 C 242.40435,93.107508 236.70978,98.421437 232.84375,104.8125 C 232.78771,104.90442 232.7428,105.00134 232.6875,105.09375 C 232.54088,105.34057 232.39118,105.59392 232.25,105.84375 C 232.12018,106.07195 232.00038,106.30026 231.875,106.53125 C 231.56832,107.09992 231.27855,107.66736 231,108.25 C 230.76466,108.74225 230.55798,109.24804 230.34375,109.75 L 243.03125,115.34375 C 243.09398,115.19695 243.15272,115.05327 243.21875,114.90625 C 243.23756,114.86405 243.2622,114.82335 243.28125,114.78125 C 243.43465,114.44465 243.58268,114.10991 243.75,113.78125 C 243.85529,113.57249 243.95155,113.36214 244.0625,113.15625 C 244.08489,113.11503 244.10238,113.07233 244.125,113.03125 C 245.30233,110.89313 246.78715,108.9316 248.5,107.21875 C 249.95479,105.76395 251.57618,104.48073 253.34375,103.40625 C 254.05077,102.97646 254.78174,102.58012 255.53125,102.21875 C 256.6555,101.67669 257.82357,101.21971 259.03125,100.84375 C 261.4466,100.09182 264.02601,99.6875 266.6875,99.6875 C 268.95246,99.687498 271.158,99.979235 273.25,100.53125 C 274.08679,100.75206 274.88633,101.01154 275.6875,101.3125 C 277.41082,101.95987 279.03446,102.79588 280.5625,103.78125 L 269.4375,108.6875 L 286.25,120.96875 L 303.09375,133.28125 L 305.3125,112.5625 L 307.5625,91.84375 L 294.78125,97.46875 C 291.45042,94.116548 287.53366,91.366974 283.1875,89.375 L 283.21875,89.34375 C 282.92214,89.207508 282.61232,89.097648 282.3125,88.96875 C 281.71715,88.712802 281.10718,88.476623 280.5,88.25 C 279.25851,87.786629 278.00253,87.400108 276.71875,87.0625 C 275.43326,86.724442 274.13069,86.457691 272.8125,86.25 C 270.66447,85.91156 268.48222,85.727359 266.28125,85.75 z "
           id="path7389" />
        <path
           style="opacity:1;fill:#c4c4c4;fill-opacity:1;stroke:black;stroke-width:1;stroke-linecap:butt;stroke-linejoin:miter;stroke-miterlimit:19.70000076;stroke-dasharray:none;stroke-opacity:1"
           d="M 267.02991,165.21329 C 270.19066,165.18078 273.36551,164.75565 276.52991,163.93204 C 277.15337,163.76978 277.7842,163.59504 278.40491,163.40079 C 279.01636,163.20945 279.6408,162.99858 280.24866,162.77579 C 280.43312,162.70819 280.6271,162.65881 280.81116,162.58829 C 281.83737,162.19513 282.80632,161.74299 283.77991,161.27579 C 290.90681,157.85578 296.60138,152.54186 300.46741,146.15079 C 300.52345,146.05887 300.56836,145.96195 300.62366,145.86954 C 300.77028,145.62272 300.91998,145.36937 301.06116,145.11954 C 301.19098,144.89134 301.31078,144.66303 301.43616,144.43204 C 301.74284,143.86337 302.03261,143.29593 302.31116,142.71329 C 302.5465,142.22104 302.75318,141.71525 302.96741,141.21329 L 290.27991,135.61954 C 290.21718,135.76634 290.15844,135.91002 290.09241,136.05704 C 290.0736,136.09924 290.04896,136.13994 290.02991,136.18204 C 289.87651,136.51864 289.72848,136.85338 289.56116,137.18204 C 289.45587,137.3908 289.35961,137.60115 289.24866,137.80704 C 289.22627,137.84826 289.20878,137.89096 289.18616,137.93204 C 288.00883,140.07016 286.52401,142.03169 284.81116,143.74454 C 283.35637,145.19934 281.73498,146.48256 279.96741,147.55704 C 279.26039,147.98683 278.52942,148.38317 277.77991,148.74454 C 276.65566,149.2866 275.48759,149.74358 274.27991,150.11954 C 271.86456,150.87147 269.28515,151.27579 266.62366,151.27579 C 264.3587,151.27579 262.15316,150.98406 260.06116,150.43204 C 259.22437,150.21123 258.42483,149.95175 257.62366,149.65079 C 255.90034,149.00342 254.2767,148.16741 252.74866,147.18204 L 263.87366,142.27579 L 247.06116,129.99454 L 230.21741,117.68204 L 227.99866,138.40079 L 225.74866,159.11954 L 238.52991,153.49454 C 241.86074,156.84674 245.7775,159.59632 250.12366,161.58829 L 250.09241,161.61954 C 250.38902,161.75578 250.69884,161.86564 250.99866,161.99454 C 251.59401,162.25049 252.20398,162.48667 252.81116,162.71329 C 254.05265,163.17666 255.30863,163.56318 256.59241,163.90079 C 257.8779,164.23885 259.18047,164.5056 260.49866,164.71329 C 262.64669,165.05173 264.82894,165.23593 267.02991,165.21329 z "
           id="path7391" />
      </g>
    </g>
    <g
       id="g3722">
      <path
         transform="matrix(0.230268,0,0,0.230268,691.3794,127.0531)"
         d="M -1479.9507 -144.77362 A 73.827164 73.827164 0 1 1  -1627.605,-144.77362 A 73.827164 73.827164 0 1 1  -1479.9507 -144.77362 z"
         sodipodi:ry="73.827164"
         sodipodi:rx="73.827164"
         sodipodi:cy="-144.77362"
         sodipodi:cx="-1553.7778"
         id="path7405"
         style="fill:#e9f4c9;fill-opacity:1;stroke:#9c0;stroke-width:4.34277439;stroke-linecap:butt;stroke-linejoin:round;stroke-miterlimit:4;stroke-dasharray:none;stroke-opacity:1"
         sodipodi:type="arc" />
      <g
         transform="translate(-0.144374,0.503514)"
         id="g3718">
        <path
           style="fill:#9c0;fill-opacity:1;stroke:#c4c4c4;stroke-width:1;stroke-linecap:butt;stroke-linejoin:miter;stroke-miterlimit:19.70000076;stroke-dasharray:none;stroke-opacity:1"
           d="M 333.64967,83.510307 C 332.89993,83.518245 332.14684,83.622063 331.39624,83.82319 C 331.24835,83.862817 331.09872,83.905487 330.95148,83.952922 C 330.80645,83.99965 330.65833,84.051146 330.51414,84.105549 C 330.47039,84.122057 330.42437,84.134116 330.38071,84.151337 C 330.13729,84.24735 329.90746,84.357761 329.67652,84.471852 C 327.98599,85.307025 326.63523,86.604698 325.71819,88.165407 C 325.7049,88.187854 325.69425,88.211523 325.68113,88.234088 C 325.64635,88.294363 325.61084,88.356232 325.57735,88.417241 C 325.54656,88.472967 325.51814,88.528721 325.4884,88.58513 C 325.41566,88.723999 325.34692,88.86257 325.28085,89.004851 C 325.22503,89.12506 325.176,89.248574 325.12518,89.371155 L 328.1347,90.737159 C 328.14958,90.70131 328.16351,90.666223 328.17917,90.630321 C 328.18363,90.620016 328.18948,90.610077 328.194,90.599795 C 328.23039,90.517597 328.2655,90.435853 328.30519,90.355593 C 328.33016,90.304614 328.353,90.253246 328.37931,90.202967 C 328.38462,90.192901 328.38877,90.182474 328.39414,90.172442 C 328.6734,89.650309 329.02561,89.1713 329.4319,88.753018 C 329.77698,88.397752 330.16158,88.084388 330.58085,87.821998 C 330.74856,87.717043 330.92195,87.620256 331.09974,87.532008 C 331.36641,87.399636 331.64348,87.28804 331.92995,87.196231 C 332.50287,87.012608 333.11472,86.913872 333.74603,86.913872 C 334.28329,86.913872 334.80645,86.985113 335.30268,87.119918 C 335.50116,87.173839 335.69082,87.237204 335.88086,87.310701 C 336.28963,87.468789 336.67477,87.672944 337.03722,87.913573 L 334.39834,89.11169 L 338.38631,92.110796 L 342.3817,95.117532 L 342.908,90.057972 L 343.4417,84.998413 L 340.40995,86.372049 C 339.61987,85.553435 338.6908,84.881982 337.65988,84.395539 L 337.66729,84.387907 C 337.59694,84.354637 337.52345,84.327809 337.45233,84.296332 C 337.31111,84.233829 337.16642,84.176153 337.0224,84.120811 C 336.72791,84.007656 336.42999,83.913267 336.12547,83.830822 C 335.82055,83.748267 335.51158,83.683126 335.1989,83.632408 C 334.68938,83.54976 334.17174,83.504778 333.64967,83.510307 z "
           id="path7409" />
        <path
           style="fill:#c4c4c4;fill-opacity:1;stroke:#9c0;stroke-width:1;stroke-linecap:butt;stroke-linejoin:miter;stroke-miterlimit:19.70000076;stroke-dasharray:none;stroke-opacity:1"
           d="M 333.82725,102.9154 C 334.57699,102.90746 335.33007,102.80365 336.08068,102.60252 C 336.22857,102.56289 336.3782,102.52022 336.52544,102.47278 C 336.67047,102.42606 336.81859,102.37456 336.96278,102.32016 C 337.00653,102.30364 337.05255,102.29159 337.09621,102.27437 C 337.33963,102.17836 337.56946,102.06794 337.8004,101.95385 C 339.49092,101.11868 340.84169,99.821012 341.75873,98.260299 C 341.77202,98.237853 341.78267,98.214185 341.79579,98.191618 C 341.83057,98.131344 341.86608,98.069475 341.89957,98.008466 C 341.93036,97.952739 341.95878,97.896986 341.98852,97.840578 C 342.06126,97.701707 342.13,97.563137 342.19607,97.420855 C 342.25189,97.300646 342.30092,97.177132 342.35173,97.054553 L 339.34222,95.688547 C 339.32734,95.724396 339.31341,95.759483 339.29775,95.795386 C 339.29328,95.805691 339.28744,95.81563 339.28292,95.825911 C 339.24653,95.908109 339.21142,95.989853 339.17173,96.070113 C 339.14676,96.121092 339.12392,96.172461 339.09761,96.222739 C 339.09229,96.232805 339.08815,96.243232 339.08278,96.253264 C 338.80351,96.775398 338.45131,97.254408 338.04502,97.672689 C 337.69994,98.027954 337.31534,98.341318 336.89607,98.603708 C 336.72836,98.708664 336.55497,98.805451 336.37718,98.893699 C 336.11051,99.02607 335.83344,99.137666 335.54697,99.229476 C 334.97405,99.413099 334.3622,99.511835 333.73089,99.511835 C 333.19363,99.511835 332.67047,99.440593 332.17424,99.30579 C 331.97575,99.251867 331.7861,99.188502 331.59606,99.115007 C 331.18728,98.956917 330.80215,98.752762 330.4397,98.512133 L 333.07858,97.314017 L 329.0906,94.314912 L 325.09522,91.308174 L 324.56892,96.367734 L 324.03522,101.42729 L 327.06697,100.05366 C 327.85705,100.87227 328.78612,101.54372 329.81704,102.03017 L 329.80963,102.0378 C 329.87998,102.07107 329.95347,102.09789 330.02459,102.12937 C 330.16581,102.19188 330.3105,102.24956 330.45452,102.3049 C 330.74901,102.41805 331.04693,102.51244 331.35145,102.59488 C 331.65637,102.67744 331.96534,102.74258 332.27802,102.7933 C 332.78754,102.87595 333.30517,102.92093 333.82725,102.9154 z "
           id="path7411" />
      </g>
    </g>
    <g
       id="g2036"
       transform="translate(-170.9185,179.4568)">
      <path
         transform="matrix(0.978994,0,0,0.978994,1844.802,415.8582)"
         d="M -1479.9507 -144.77362 A 73.827164 73.827164 0 1 1  -1627.605,-144.77362 A 73.827164 73.827164 0 1 1  -1479.9507 -144.77362 z"
         sodipodi:ry="73.827164"
         sodipodi:rx="73.827164"
         sodipodi:cy="-144.77362"
         sodipodi:cx="-1553.7778"
         id="path1922"
         style="fill:#e9f4c9;fill-opacity:1;stroke:#9c0;stroke-width:3.06437016;stroke-linecap:butt;stroke-linejoin:round;stroke-miterlimit:4;stroke-dasharray:none;stroke-opacity:1"
         sodipodi:type="arc" />
      <path
         sodipodi:nodetypes="ccccccccccc"
         id="path1926"
         d="M 314.53293,247.71395 C 303.84783,252.77063 288.20334,270.80117 283.92056,281.29349 C 279.56149,292.61257 275.41085,304.3361 275.49432,316.50039 C 279.04799,303.53598 283.90762,289.90909 294.94529,281.4069 C 305.25525,273.21204 313.39993,269.30658 326.8936,271.49102 C 321.34497,277.61332 319.09361,281.07209 313.54501,287.19441 C 328.6003,281.21977 345.10124,284.86337 360.10404,289.03857 C 363.6464,289.52687 370.03545,292.67728 371.83257,291.31199 C 365.60913,272.14638 362.10236,251.93582 363.34911,231.75099 C 356.70694,238.98994 354.66493,241.56325 348.02278,248.8022 C 335.2596,243.62391 327.09864,242.10446 314.53293,247.71395 z "
         style="fill:#9c0;fill-opacity:1;stroke:#bdc5a4;stroke-width:1.30317724;stroke-linecap:butt;stroke-linejoin:miter;stroke-miterlimit:19.70000076;stroke-dasharray:none;stroke-opacity:1" />
    </g>
    <g
       id="g3714">
      <path
         transform="matrix(0.230268,0,0,0.230268,732.2684,126.6899)"
         d="M -1479.9507 -144.77362 A 73.827164 73.827164 0 1 1  -1627.605,-144.77362 A 73.827164 73.827164 0 1 1  -1479.9507 -144.77362 z"
         sodipodi:ry="73.827164"
         sodipodi:rx="73.827164"
         sodipodi:cy="-144.77362"
         sodipodi:cx="-1553.7778"
         id="path2042"
         style="fill:#e9f4c9;fill-opacity:1;stroke:#9c0;stroke-width:4.34277391;stroke-linecap:butt;stroke-linejoin:round;stroke-miterlimit:4;stroke-dasharray:none;stroke-opacity:1"
         sodipodi:type="arc" />
      <path
         sodipodi:nodetypes="ccccccccccc"
         id="path2044"
         d="M 372.57009,88.16933 C 370.33123,89.161806 367.05323,92.700663 366.15585,94.759993 C 365.24248,96.98159 364.3728,99.282573 364.39029,101.67006 C 365.13489,99.125534 366.15314,96.450978 368.46587,94.782252 C 370.62613,93.173845 372.33269,92.40732 375.16003,92.83606 C 373.99742,94.037685 373.52569,94.716538 372.36309,95.918167 C 375.51764,94.745523 378.9751,95.460653 382.11866,96.280121 C 382.86089,96.375959 384.19959,96.994291 384.57614,96.726325 C 383.27214,92.964688 382.53737,88.997957 382.7986,85.036278 C 381.40686,86.457068 380.979,86.962132 379.58726,88.382921 C 376.91297,87.366577 375.203,87.068355 372.57009,88.16933 z "
         style="fill:#9c0;fill-opacity:1;stroke:#bdc5a4;stroke-width:0.85493124;stroke-linecap:butt;stroke-linejoin:miter;stroke-miterlimit:19.70000076;stroke-dasharray:none;stroke-opacity:1" />
    </g>
    <g
       id="g3728"
       transform="matrix(0.991599,0,0,0.991599,2.311857,0.93122)">
      <path
         transform="matrix(0.23222,0,0,0.23222,653.6683,126.8284)"
         d="M -1479.9507 -144.77362 A 73.827164 73.827164 0 1 1  -1627.605,-144.77362 A 73.827164 73.827164 0 1 1  -1479.9507 -144.77362 z"
         sodipodi:ry="73.827164"
         sodipodi:rx="73.827164"
         sodipodi:cy="-144.77362"
         sodipodi:cx="-1553.7778"
         id="path2074"
         style="fill:#e9f4c9;fill-opacity:1;stroke:#9c0;stroke-width:4.34274244;stroke-linecap:butt;stroke-linejoin:round;stroke-miterlimit:4;stroke-dasharray:none;stroke-opacity:1"
         sodipodi:type="arc" />
      <path
         sodipodi:nodetypes="cccccccccccc"
         id="path2076"
         d="M 287.75848,85.627938 L 287.75848,92.915853 L 282.21517,92.915853 L 292.79473,103.12861 L 292.85192,103.18393 L 292.90529,103.12861 L 303.48485,92.915853 L 297.94153,92.915853 L 297.94153,85.627938 L 296.76349,85.627938 L 288.93653,85.627938 L 287.75848,85.627938 z "
         style="fill:#9c0;fill-opacity:1;fill-rule:evenodd;stroke:#c4c4c4;stroke-width:1.00847161;stroke-linecap:butt;stroke-linejoin:miter;stroke-miterlimit:4;stroke-dasharray:none;stroke-opacity:1" />
    </g>
    <g
       id="g1942"
       transform="matrix(0.133828,0,0,0.132464,430.9802,55.10539)">
      <path
         transform="matrix(1.735029,0,0,1.753316,3168.594,532.9986)"
         d="M -1479.9507 -144.77362 A 73.827164 73.827164 0 1 1  -1627.605,-144.77362 A 73.827164 73.827164 0 1 1  -1479.9507 -144.77362 z"
         sodipodi:ry="73.827164"
         sodipodi:rx="73.827164"
         sodipodi:cy="-144.77362"
         sodipodi:cx="-1553.7778"
         id="path1925"
         style="fill:#e9f4c9;fill-opacity:1;stroke:#9c0;stroke-width:3.06437016;stroke-linecap:butt;stroke-linejoin:round;stroke-miterlimit:4;stroke-dasharray:none;stroke-opacity:1"
         sodipodi:type="arc" />
      <g
         transform="translate(1.877202,2.597185)"
         id="g1938">
        <path
           style="fill:#9c0;fill-opacity:1;stroke:#c4c4c4;stroke-width:2.22394466;stroke-linecap:butt;stroke-linejoin:miter;stroke-miterlimit:19.70000076;stroke-dasharray:none;stroke-opacity:1"
           d="M 469.99021,189.40586 C 462.99762,189.47855 455.97384,190.42898 448.97319,192.27027 C 447.5939,192.63303 446.19831,193.02368 444.8251,193.45796 C 443.47238,193.88571 442.09092,194.35715 440.74613,194.85522 C 440.33805,195.00635 439.90891,195.11674 439.50171,195.2744 C 437.23141,196.15337 435.08778,197.16419 432.93389,198.20867 C 417.16693,205.85456 404.56874,217.73454 396.01586,232.02263 C 395.89188,232.22813 395.79252,232.44481 395.67019,232.6514 C 395.34582,233.2032 395.01463,233.7696 394.70229,234.32813 C 394.41509,234.83831 394.15005,235.34872 393.87268,235.86513 C 393.1942,237.13646 392.55315,238.40505 391.9369,239.70762 C 391.41625,240.80811 390.95901,241.93888 390.48507,243.06108 L 418.55384,255.56666 C 418.69261,255.23847 418.82257,254.91725 418.96865,254.58856 C 419.01025,254.49421 419.06477,254.40323 419.10691,254.3091 C 419.44629,253.5566 419.77378,252.80824 420.14394,252.07348 C 420.37687,251.60676 420.58983,251.1365 420.83529,250.6762 C 420.88482,250.58405 420.92352,250.48859 420.97356,250.39675 C 423.57819,245.6167 426.86308,241.23144 430.65244,237.40213 C 433.8709,234.14973 437.45793,231.28091 441.36835,228.87878 C 442.9325,227.91792 444.54964,227.03185 446.20779,226.22396 C 448.69499,225.01212 451.27913,223.99047 453.9509,223.14996 C 459.29442,221.46893 465.00089,220.56501 470.88895,220.56501 C 475.89977,220.56501 480.77912,221.21721 485.40728,222.45133 C 487.25853,222.94497 489.02736,223.52509 490.79981,224.19792 C 494.61233,225.64519 498.20434,227.51421 501.58485,229.71714 L 476.97282,240.68572 L 514.1674,268.14209 L 551.43112,295.66833 L 556.33969,249.3488 L 561.3174,203.02926 L 533.04123,215.6047 C 525.67237,208.11041 517.00727,201.96336 507.39219,197.51004 L 507.46132,197.44017 C 506.80512,197.13559 506.1197,196.88998 505.4564,196.60181 C 504.1393,196.0296 502.78985,195.50159 501.44657,194.99494 C 498.70002,193.95903 495.92139,193.09491 493.08126,192.34014 C 490.23735,191.58435 487.35565,190.988 484.4394,190.52368 C 479.68727,189.76706 474.85944,189.35525 469.99021,189.40586 z "
           id="path1936" />
        <path
           style="fill:#c4c4c4;fill-opacity:1;stroke:#9c0;stroke-width:2.22394466;stroke-linecap:butt;stroke-linejoin:miter;stroke-miterlimit:19.70000076;stroke-dasharray:none;stroke-opacity:1"
           d="M 471.74419,363.72916 C 478.73678,363.65647 485.76056,362.70604 492.76121,360.86475 C 494.1405,360.50199 495.53609,360.11134 496.9093,359.67706 C 498.26202,359.24931 499.64348,358.77787 500.98827,358.2798 C 501.39635,358.12867 501.82549,358.01828 502.23269,357.86062 C 504.50299,356.98165 506.64662,355.97083 508.80051,354.92635 C 524.56747,347.28046 537.16566,335.40048 545.71854,321.11239 C 545.84252,320.90689 545.94188,320.69021 546.06421,320.48362 C 546.38858,319.93182 546.71977,319.36542 547.03211,318.80689 C 547.31931,318.29671 547.58435,317.7863 547.86172,317.26989 C 548.5402,315.99856 549.18125,314.72997 549.7975,313.4274 C 550.31815,312.32691 550.77539,311.19614 551.24933,310.07394 L 523.18056,297.56836 C 523.04179,297.89655 522.91183,298.21777 522.76575,298.54646 C 522.72415,298.64081 522.66963,298.73179 522.62749,298.82592 C 522.28811,299.57842 521.96062,300.32678 521.59046,301.06154 C 521.35753,301.52826 521.14457,301.99852 520.89911,302.45882 C 520.84958,302.55097 520.81088,302.64643 520.76084,302.73827 C 518.15621,307.51832 514.87132,311.90358 511.08196,315.73289 C 507.8635,318.98529 504.27647,321.85411 500.36605,324.25624 C 498.8019,325.2171 497.18476,326.10317 495.52661,326.91106 C 493.03941,328.1229 490.45527,329.14455 487.7835,329.98506 C 482.43998,331.66609 476.73351,332.57001 470.84545,332.57001 C 465.83463,332.57001 460.95528,331.91781 456.32712,330.68369 C 454.47587,330.19005 452.70704,329.60993 450.93459,328.9371 C 447.12207,327.48983 443.53006,325.62081 440.14955,323.41788 L 464.76158,312.4493 L 427.567,284.99293 L 390.30328,257.46669 L 385.39471,303.78622 L 380.417,350.10576 L 408.69317,337.53032 C 416.06203,345.02461 424.72713,351.17166 434.34221,355.62498 L 434.27308,355.69485 C 434.92928,355.99943 435.6147,356.24504 436.278,356.53321 C 437.5951,357.10542 438.94455,357.63343 440.28783,358.14008 C 443.03438,359.17599 445.81301,360.04011 448.65314,360.79488 C 451.49705,361.55067 454.37875,362.14702 457.295,362.61134 C 462.04713,363.36796 466.87496,363.77977 471.74419,363.72916 z "
           id="path1929" />
      </g>
    </g>
    <g
       id="g2901"
       transform="matrix(0.15838,0,0,0.15838,374.7116,61.12917)">
      <path
         transform="matrix(1.466226,0,0,1.466226,2791.836,414.7317)"
         d="M -1479.9507 -144.77362 A 73.827164 73.827164 0 1 1  -1627.605,-144.77362 A 73.827164 73.827164 0 1 1  -1479.9507 -144.77362 z"
         sodipodi:ry="73.827164"
         sodipodi:rx="73.827164"
         sodipodi:cy="-144.77362"
         sodipodi:cx="-1553.7778"
         id="path2875"
         style="fill:#e9f4c9;fill-opacity:1;stroke:#9c0;stroke-width:3.06437016;stroke-linecap:butt;stroke-linejoin:round;stroke-miterlimit:4;stroke-dasharray:none;stroke-opacity:1"
         sodipodi:type="arc" />
      <g
         transform="translate(-0.197206,15.89502)"
         id="g2895">
        <path
           style="fill:#c4c4c4;fill-opacity:1;stroke:#9c0;stroke-width:1;stroke-linecap:butt;stroke-linejoin:miter;stroke-miterlimit:4;stroke-dasharray:none;stroke-opacity:1"
           d="M 451.3125,139.8125 C 443.73112,139.8125 437.625,145.91862 437.625,153.5 L 437.625,232.75 C 437.625,233.5362 437.71764,234.31324 437.84375,235.0625 L 437.84375,241.96875 C 437.84375,242.9469 437.96238,243.8939 438.15625,244.8125 L 589.75,244.8125 C 589.94478,243.8939 590.0625,242.9469 590.0625,241.96875 L 590.0625,163.03125 C 590.0625,155.48043 583.95709,149.40625 576.40625,149.40625 L 486.28125,149.40625 C 484.55374,143.82882 479.37861,139.8125 473.21875,139.8125 L 451.3125,139.8125 z "
           id="rect1948" />
        <path
           style="fill:#9c0;fill-opacity:1;stroke:#bdc5a4;stroke-width:1.44960654;stroke-linecap:butt;stroke-linejoin:miter;stroke-miterlimit:19.70000076;stroke-dasharray:none;stroke-opacity:1"
           d="M 496.01064,144.35401 C 485.9816,151.02017 471.29762,174.78966 467.27777,188.62158 C 463.18631,203.54341 459.29053,218.99844 459.36888,235.03446 C 462.70434,217.94366 467.26563,199.97946 477.62563,188.77108 C 487.30258,177.96791 494.94722,172.81937 507.61243,175.69906 C 502.40446,183.77004 500.29133,188.32969 495.08341,196.40073 C 509.21437,188.52439 524.70221,193.32774 538.78389,198.83187 C 542.10879,199.47555 548.10556,203.62872 549.79233,201.82887 C 543.95097,176.56305 540.65954,149.91965 541.82973,123.31022 C 535.59537,132.85324 533.67874,136.24563 527.44439,145.78866 C 515.46479,138.96215 507.80489,136.95906 496.01064,144.35401 z "
           id="path2877"
           sodipodi:nodetypes="ccccccccccc" />
        <path
           style="fill:white;fill-opacity:1;stroke:#9c0;stroke-width:0.99815154;stroke-linecap:butt;stroke-linejoin:miter;stroke-miterlimit:4;stroke-dasharray:none;stroke-opacity:1"
           d="M 461.42632,184.4173 C 456.79423,184.4173 452.08627,188.16627 450.88739,192.8327 L 438.34888,241.60764 C 437.15001,246.27408 439.92722,250.04759 444.55933,250.04759 L 485.18601,250.04759 L 542.49146,250.04759 L 583.11816,250.04759 C 587.75025,250.04759 590.52745,246.27409 589.32861,241.60764 L 576.79009,192.8327 C 575.59121,188.16627 570.88326,184.4173 566.25116,184.4173 L 559.35849,184.4173 L 468.31899,184.4173 L 461.42632,184.4173 z "
           id="rect1952" />
        <path
           style="fill:#9c0;fill-opacity:1;stroke:#bdc5a4;stroke-width:1.44960654;stroke-linecap:butt;stroke-linejoin:miter;stroke-miterlimit:19.70000076;stroke-dasharray:none;stroke-opacity:1"
           d="M 541.84375,123.3098 C 535.60941,132.85282 533.67185,136.23552 527.4375,145.77855 C 515.45789,138.95203 507.79425,136.9461 496,144.34105 C 487.19624,150.19278 474.80291,169.23429 469.1875,183.15355 L 483.09375,183.15355 C 490.4705,176.28882 497.4184,173.36412 507.625,175.6848 C 502.41703,183.75577 500.30167,188.33251 495.09375,196.40355 C 509.22472,188.52721 524.69957,193.33692 538.78125,198.84105 C 542.10617,199.48474 548.09448,203.6409 549.78125,201.84105 C 543.93986,176.57523 540.67356,149.91923 541.84375,123.3098 z "
           id="path2893" />
      </g>
    </g>
    <flowRoot
       xml:space="preserve"
       id="flowRoot3732"><flowRegion
         id="flowRegion3734"><rect
           id="rect3736"
           width="297.58026"
           height="469.08643"
           x="787.11115"
           y="67.621429" /></flowRegion><flowPara
         id="flowPara3738" /><flowPara
         id="flowPara3740">view:</flowPara><flowPara
         id="flowPara3742">Open</flowPara><flowPara
         id="flowPara3744">Download</flowPara><flowPara
         id="flowPara3746">View in repos</flowPara><flowPara
         id="flowPara3748" /><flowPara
         id="flowPara3750">edit:</flowPara><flowPara
         id="flowPara3752">Download, modify, upload</flowPara><flowPara
         id="flowPara3754">Upload new version</flowPara><flowPara
         id="flowPara3756">Edit in Repos</flowPara><flowPara
         id="flowPara3758">Lock and Download</flowPara><flowPara
         id="flowPara3760">Unlock file</flowPara></flowRoot>    <g
       id="g9301">
      <path
         transform="matrix(0.230268,0,0,0.230268,650.337,166.7017)"
         d="M -1479.9507 -144.77362 A 73.827164 73.827164 0 1 1  -1627.605,-144.77362 A 73.827164 73.827164 0 1 1  -1479.9507 -144.77362 z"
         sodipodi:ry="73.827164"
         sodipodi:rx="73.827164"
         sodipodi:cy="-144.77362"
         sodipodi:cx="-1553.7778"
         id="path3764"
         style="fill:#e9f4c9;fill-opacity:1;stroke:#9c0;stroke-width:4.34278536;stroke-linecap:butt;stroke-linejoin:round;stroke-miterlimit:4;stroke-dasharray:none;stroke-opacity:1"
         sodipodi:type="arc" />
      <g
         id="g8299">
        <rect
           style="fill:#e9f4c9;fill-opacity:1;stroke:#9c0;stroke-opacity:1"
           width="14.135994"
           height="18.656952"
           x="285.4837"
           y="124.03651"
           id="rect4662" />
        <g
           id="g8292">
          <path
             id="path4664"
             d="M 286.73216,127.94344 L 298.37121,127.94344"
             style="fill:black;fill-opacity:0;fill-rule:evenodd;stroke:#c4c4c4;stroke-width:1;stroke-linecap:butt;stroke-linejoin:miter;stroke-miterlimit:4;stroke-dasharray:none;stroke-opacity:1" />
          <path
             id="path4668"
             d="M 286.73216,130.65422 L 298.37121,130.65422"
             style="fill:black;fill-opacity:0;fill-rule:evenodd;stroke:#c4c4c4;stroke-width:1;stroke-linecap:butt;stroke-linejoin:miter;stroke-miterlimit:4;stroke-dasharray:none;stroke-opacity:1" />
          <path
             id="path4672"
             d="M 286.73216,133.36503 L 298.37121,133.36503"
             style="fill:black;fill-opacity:0;fill-rule:evenodd;stroke:#c4c4c4;stroke-width:1;stroke-linecap:butt;stroke-linejoin:miter;stroke-miterlimit:4;stroke-dasharray:none;stroke-opacity:1" />
          <path
             id="path4676"
             d="M 286.73216,136.07581 L 298.37121,136.07581"
             style="fill:black;fill-opacity:0;fill-rule:evenodd;stroke:#c4c4c4;stroke-width:1;stroke-linecap:butt;stroke-linejoin:miter;stroke-miterlimit:4;stroke-dasharray:none;stroke-opacity:1" />
          <path
             id="path4678"
             d="M 286.73216,138.78661 L 298.37121,138.78661"
             style="fill:black;fill-opacity:0;fill-rule:evenodd;stroke:#c4c4c4;stroke-width:1;stroke-linecap:butt;stroke-linejoin:miter;stroke-miterlimit:4;stroke-dasharray:none;stroke-opacity:1" />
        </g>
      </g>
    </g>
    <g
       id="g8319"
       transform="matrix(0.991599,0,0,-0.991599,42.10755,225.2002)">
      <path
         transform="matrix(0.23222,0,0,0.23222,653.6683,126.8284)"
         d="M -1479.9507 -144.77362 A 73.827164 73.827164 0 1 1  -1627.605,-144.77362 A 73.827164 73.827164 0 1 1  -1479.9507 -144.77362 z"
         sodipodi:ry="73.827164"
         sodipodi:rx="73.827164"
         sodipodi:cy="-144.77362"
         sodipodi:cx="-1553.7778"
         id="path8321"
         style="fill:#e9f4c9;fill-opacity:1;stroke:#9c0;stroke-width:4.34274244;stroke-linecap:butt;stroke-linejoin:round;stroke-miterlimit:4;stroke-dasharray:none;stroke-opacity:1"
         sodipodi:type="arc" />
      <path
         sodipodi:nodetypes="cccccccccccc"
         id="path8323"
         d="M 287.75848,85.627938 L 287.75848,92.915853 L 282.21517,92.915853 L 292.79473,103.12861 L 292.85192,103.18393 L 292.90529,103.12861 L 303.48485,92.915853 L 297.94153,92.915853 L 297.94153,85.627938 L 296.76349,85.627938 L 288.93653,85.627938 L 287.75848,85.627938 z "
         style="fill:#9c0;fill-opacity:1;fill-rule:evenodd;stroke:#c4c4c4;stroke-width:1.00847161;stroke-linecap:butt;stroke-linejoin:miter;stroke-miterlimit:4;stroke-dasharray:none;stroke-opacity:1" />
    </g>
    <g
       id="g9244"
       transform="translate(78,-50)">
      <g
         transform="matrix(0.991599,0,0,0.991599,3.557135,89.3393)"
         id="g8325">
        <path
           sodipodi:type="arc"
           style="fill:#e9f4c9;fill-opacity:1;stroke:#9c0;stroke-width:4.34274244;stroke-linecap:butt;stroke-linejoin:round;stroke-miterlimit:4;stroke-dasharray:none;stroke-opacity:1"
           id="path8327"
           sodipodi:cx="-1553.7778"
           sodipodi:cy="-144.77362"
           sodipodi:rx="73.827164"
           sodipodi:ry="73.827164"
           d="M -1479.9507 -144.77362 A 73.827164 73.827164 0 1 1  -1627.605,-144.77362 A 73.827164 73.827164 0 1 1  -1479.9507 -144.77362 z"
           transform="matrix(0.23222,0,0,0.23222,653.6683,126.8284)" />
        <path
           style="fill:#9c0;fill-opacity:1;fill-rule:evenodd;stroke:#c4c4c4;stroke-width:1.00847161;stroke-linecap:butt;stroke-linejoin:miter;stroke-miterlimit:4;stroke-dasharray:none;stroke-opacity:1"
           d="M 287.75848,85.627938 L 287.75848,92.915853 L 282.21517,92.915853 L 292.79473,103.12861 L 292.85192,103.18393 L 292.90529,103.12861 L 303.48485,92.915853 L 297.94153,92.915853 L 297.94153,85.627938 L 296.76349,85.627938 L 288.93653,85.627938 L 287.75848,85.627938 z "
           id="path8329"
           sodipodi:nodetypes="cccccccccccc" />
      </g>
      <g
         transform="translate(-0.625,-0.625)"
         id="g9240">
        <path
           style="fill:none;fill-rule:evenodd;stroke:black;stroke-width:0.9999997px;stroke-linecap:butt;stroke-linejoin:miter;stroke-opacity:1"
           d="M 300.96944,179.43882 C 304.51971,179.43882 303.89638,185.44922 303.89638,185.44922 M 301.0447,179.43882 C 297.49443,179.43882 298.11776,185.44922 298.11776,185.44922"
           id="path8341" />
        <rect
           style="fill:#fc0;fill-opacity:1;stroke:black;stroke-width:1;stroke-linecap:butt;stroke-linejoin:miter;stroke-miterlimit:4;stroke-dasharray:none;stroke-opacity:1"
           id="rect8331"
           width="7.2282033"
           height="7.5293779"
           x="297.39297"
           y="185.12625" />
      </g>
    </g>
    <g
       id="g9312">
      <path
         transform="matrix(0.230269,0,0,0.230269,650.7871,206.6991)"
         d="M -1479.9507 -144.77362 A 73.827164 73.827164 0 1 1  -1627.605,-144.77362 A 73.827164 73.827164 0 1 1  -1479.9507 -144.77362 z"
         sodipodi:ry="73.827164"
         sodipodi:rx="73.827164"
         sodipodi:cy="-144.77362"
         sodipodi:cx="-1553.7778"
         id="path9256"
         style="fill:#e9f4c9;fill-opacity:1;stroke:#9c0;stroke-width:4.34274244;stroke-linecap:butt;stroke-linejoin:round;stroke-miterlimit:4;stroke-dasharray:none;stroke-opacity:1"
         sodipodi:type="arc" />
      <g
         transform="translate(0.448532,39.99724)"
         id="g9285">
        <rect
           style="fill:#e9f4c9;fill-opacity:1;stroke:#9c0;stroke-opacity:1"
           width="14.135994"
           height="18.656952"
           x="285.4837"
           y="124.03651"
           id="rect9287" />
        <g
           id="g9289">
          <path
             id="path9291"
             d="M 286.73216,127.94344 L 298.37121,127.94344"
             style="fill:black;fill-opacity:0;fill-rule:evenodd;stroke:#c4c4c4;stroke-width:1;stroke-linecap:butt;stroke-linejoin:miter;stroke-miterlimit:4;stroke-dasharray:none;stroke-opacity:1" />
          <path
             id="path9293"
             d="M 286.73216,130.65422 L 298.37121,130.65422"
             style="fill:black;fill-opacity:0;fill-rule:evenodd;stroke:#c4c4c4;stroke-width:1;stroke-linecap:butt;stroke-linejoin:miter;stroke-miterlimit:4;stroke-dasharray:none;stroke-opacity:1" />
          <path
             id="path9295"
             d="M 286.73216,133.36503 L 298.37121,133.36503"
             style="fill:black;fill-opacity:0;fill-rule:evenodd;stroke:#c4c4c4;stroke-width:1;stroke-linecap:butt;stroke-linejoin:miter;stroke-miterlimit:4;stroke-dasharray:none;stroke-opacity:1" />
          <path
             id="path9297"
             d="M 286.73216,136.07581 L 298.37121,136.07581"
             style="fill:black;fill-opacity:0;fill-rule:evenodd;stroke:#c4c4c4;stroke-width:1;stroke-linecap:butt;stroke-linejoin:miter;stroke-miterlimit:4;stroke-dasharray:none;stroke-opacity:1" />
          <path
             id="path9299"
             d="M 286.73216,138.78661 L 298.37121,138.78661"
             style="fill:black;fill-opacity:0;fill-rule:evenodd;stroke:#c4c4c4;stroke-width:1;stroke-linecap:butt;stroke-linejoin:miter;stroke-miterlimit:4;stroke-dasharray:none;stroke-opacity:1" />
        </g>
      </g>
      <rect
         y="176.09811"
         x="295.82108"
         height="7.5293779"
         width="7.2282033"
         id="rect9264"
         style="fill:#fc0;fill-opacity:1;stroke:black;stroke-width:1;stroke-linecap:butt;stroke-linejoin:miter;stroke-miterlimit:4;stroke-dasharray:none;stroke-opacity:1" />
      <path
         id="path9262"
         d="M 304.5639,170.2339 C 308.11417,170.2339 307.49084,176.2443 307.49084,176.2443 M 304.63916,170.2339 C 301.08889,170.2339 301.71222,176.2443 301.71222,176.2443"
         style="fill:none;fill-rule:evenodd;stroke:black;stroke-width:0.9999997px;stroke-linecap:butt;stroke-linejoin:miter;stroke-opacity:1" />
    </g>
    <g
       id="g9427">
      <path
         transform="matrix(0.230269,0,0,-0.230269,691.7871,140.0253)"
         d="M -1479.9507 -144.77362 A 73.827164 73.827164 0 1 1  -1627.605,-144.77362 A 73.827164 73.827164 0 1 1  -1479.9507 -144.77362 z"
         sodipodi:ry="73.827164"
         sodipodi:rx="73.827164"
         sodipodi:cy="-144.77362"
         sodipodi:cx="-1553.7778"
         id="path9327"
         style="fill:#e9f4c9;fill-opacity:1;stroke:#9c0;stroke-width:4.34274244;stroke-linecap:butt;stroke-linejoin:round;stroke-miterlimit:4;stroke-dasharray:none;stroke-opacity:1"
         sodipodi:type="arc" />
      <g
         id="g9398">
        <g
           id="g9388"
           transform="translate(1,0)">
          <g
             id="g9392"
             transform="matrix(0.87964,0.47564,-0.47564,0.87964,90.15794,-148.95)"
             style="fill:white;fill-opacity:1;stroke:#9c0;stroke-width:1;stroke-opacity:1">
            <path
               style="fill:white;fill-opacity:1;fill-rule:evenodd;stroke:#9c0;stroke-width:1px;stroke-linecap:butt;stroke-linejoin:miter;stroke-opacity:1"
               d="M 369.8293,158.6815 L 369.8293,173.6815 L 367.06477,178.6815 L 364.30025,173.6815 L 364.30025,158.6815 L 369.8293,158.6815 z "
               id="path9374"
               sodipodi:nodetypes="ccccc" />
            <path
               style="fill:white;fill-opacity:1;fill-rule:evenodd;stroke:#9c0;stroke-width:1px;stroke-linecap:butt;stroke-linejoin:miter;stroke-opacity:1"
               d="M 364.33677,173.73781 L 367.16519,172.94232 L 369.86104,173.69362"
               id="path9386"
               sodipodi:nodetypes="ccc" />
          </g>
        </g>
        <path
           style="fill:none;fill-rule:evenodd;stroke:#9c0;stroke-width:1px;stroke-linecap:butt;stroke-linejoin:miter;stroke-opacity:1"
           d="M 332.25,177.61218 L 338.88388,165.53635"
           id="path9396"
           sodipodi:nodetypes="cc" />
      </g>
    </g>
    <g
       id="g9436"
       transform="matrix(0.911765,0,0,0.911765,28.46077,163.4545)"
       inkscape:export-filename="C:\Program\ReposServer\html\repos\style\commands\32x32\DMU.png"
       inkscape:export-xdpi="90"
       inkscape:export-ydpi="90">
      <path
         transform="matrix(0.230268,0,0,0.230268,691.3794,127.0531)"
         d="M -1479.9507 -144.77362 A 73.827164 73.827164 0 1 1  -1627.605,-144.77362 A 73.827164 73.827164 0 1 1  -1479.9507 -144.77362 z"
         sodipodi:ry="73.827164"
         sodipodi:rx="73.827164"
         sodipodi:cy="-144.77362"
         sodipodi:cx="-1553.7778"
         id="path9438"
         style="fill:#e9f4c9;fill-opacity:1;stroke:#9c0;stroke-width:4.76303816;stroke-linecap:butt;stroke-linejoin:round;stroke-miterlimit:4;stroke-dasharray:none;stroke-opacity:1"
         sodipodi:type="arc" />
      <g
         transform="translate(-0.144374,0.503514)"
         id="g9440">
        <path
           style="fill:#9c0;fill-opacity:1;stroke:#c4c4c4;stroke-width:1.09677303;stroke-linecap:butt;stroke-linejoin:miter;stroke-miterlimit:19.70000076;stroke-dasharray:none;stroke-opacity:1"
           d="M 333.64967,83.510307 C 332.89993,83.518245 332.14684,83.622063 331.39624,83.82319 C 331.24835,83.862817 331.09872,83.905487 330.95148,83.952922 C 330.80645,83.99965 330.65833,84.051146 330.51414,84.105549 C 330.47039,84.122057 330.42437,84.134116 330.38071,84.151337 C 330.13729,84.24735 329.90746,84.357761 329.67652,84.471852 C 327.98599,85.307025 326.63523,86.604698 325.71819,88.165407 C 325.7049,88.187854 325.69425,88.211523 325.68113,88.234088 C 325.64635,88.294363 325.61084,88.356232 325.57735,88.417241 C 325.54656,88.472967 325.51814,88.528721 325.4884,88.58513 C 325.41566,88.723999 325.34692,88.86257 325.28085,89.004851 C 325.22503,89.12506 325.176,89.248574 325.12518,89.371155 L 328.1347,90.737159 C 328.14958,90.70131 328.16351,90.666223 328.17917,90.630321 C 328.18363,90.620016 328.18948,90.610077 328.194,90.599795 C 328.23039,90.517597 328.2655,90.435853 328.30519,90.355593 C 328.33016,90.304614 328.353,90.253246 328.37931,90.202967 C 328.38462,90.192901 328.38877,90.182474 328.39414,90.172442 C 328.6734,89.650309 329.02561,89.1713 329.4319,88.753018 C 329.77698,88.397752 330.16158,88.084388 330.58085,87.821998 C 330.74856,87.717043 330.92195,87.620256 331.09974,87.532008 C 331.36641,87.399636 331.64348,87.28804 331.92995,87.196231 C 332.50287,87.012608 333.11472,86.913872 333.74603,86.913872 C 334.28329,86.913872 334.80645,86.985113 335.30268,87.119918 C 335.50116,87.173839 335.69082,87.237204 335.88086,87.310701 C 336.28963,87.468789 336.67477,87.672944 337.03722,87.913573 L 334.39834,89.11169 L 338.38631,92.110796 L 342.3817,95.117532 L 342.908,90.057972 L 343.4417,84.998413 L 340.40995,86.372049 C 339.61987,85.553435 338.6908,84.881982 337.65988,84.395539 L 337.66729,84.387907 C 337.59694,84.354637 337.52345,84.327809 337.45233,84.296332 C 337.31111,84.233829 337.16642,84.176153 337.0224,84.120811 C 336.72791,84.007656 336.42999,83.913267 336.12547,83.830822 C 335.82055,83.748267 335.51158,83.683126 335.1989,83.632408 C 334.68938,83.54976 334.17174,83.504778 333.64967,83.510307 z "
           id="path9442" />
        <path
           style="fill:#c4c4c4;fill-opacity:1;stroke:#9c0;stroke-width:1.09677303;stroke-linecap:butt;stroke-linejoin:miter;stroke-miterlimit:19.70000076;stroke-dasharray:none;stroke-opacity:1"
           d="M 333.82725,102.9154 C 334.57699,102.90746 335.33007,102.80365 336.08068,102.60252 C 336.22857,102.56289 336.3782,102.52022 336.52544,102.47278 C 336.67047,102.42606 336.81859,102.37456 336.96278,102.32016 C 337.00653,102.30364 337.05255,102.29159 337.09621,102.27437 C 337.33963,102.17836 337.56946,102.06794 337.8004,101.95385 C 339.49092,101.11868 340.84169,99.821012 341.75873,98.260299 C 341.77202,98.237853 341.78267,98.214185 341.79579,98.191618 C 341.83057,98.131344 341.86608,98.069475 341.89957,98.008466 C 341.93036,97.952739 341.95878,97.896986 341.98852,97.840578 C 342.06126,97.701707 342.13,97.563137 342.19607,97.420855 C 342.25189,97.300646 342.30092,97.177132 342.35173,97.054553 L 339.34222,95.688547 C 339.32734,95.724396 339.31341,95.759483 339.29775,95.795386 C 339.29328,95.805691 339.28744,95.81563 339.28292,95.825911 C 339.24653,95.908109 339.21142,95.989853 339.17173,96.070113 C 339.14676,96.121092 339.12392,96.172461 339.09761,96.222739 C 339.09229,96.232805 339.08815,96.243232 339.08278,96.253264 C 338.80351,96.775398 338.45131,97.254408 338.04502,97.672689 C 337.69994,98.027954 337.31534,98.341318 336.89607,98.603708 C 336.72836,98.708664 336.55497,98.805451 336.37718,98.893699 C 336.11051,99.02607 335.83344,99.137666 335.54697,99.229476 C 334.97405,99.413099 334.3622,99.511835 333.73089,99.511835 C 333.19363,99.511835 332.67047,99.440593 332.17424,99.30579 C 331.97575,99.251867 331.7861,99.188502 331.59606,99.115007 C 331.18728,98.956917 330.80215,98.752762 330.4397,98.512133 L 333.07858,97.314017 L 329.0906,94.314912 L 325.09522,91.308174 L 324.56892,96.367734 L 324.03522,101.42729 L 327.06697,100.05366 C 327.85705,100.87227 328.78612,101.54372 329.81704,102.03017 L 329.80963,102.0378 C 329.87998,102.07107 329.95347,102.09789 330.02459,102.12937 C 330.16581,102.19188 330.3105,102.24956 330.45452,102.3049 C 330.74901,102.41805 331.04693,102.51244 331.35145,102.59488 C 331.65637,102.67744 331.96534,102.74258 332.27802,102.7933 C 332.78754,102.87595 333.30517,102.92093 333.82725,102.9154 z "
           id="path9444" />
      </g>
    </g>
    <g
       id="g9446"
       transform="matrix(0.911765,0,0,0.911765,32.30984,163.7857)"
       inkscape:export-filename="C:\Program\ReposServer\html\repos\style\commands\32x32\open.png"
       inkscape:export-xdpi="90"
       inkscape:export-ydpi="90">
      <path
         transform="matrix(0.230268,0,0,0.230268,732.2684,126.6899)"
         d="M -1479.9507 -144.77362 A 73.827164 73.827164 0 1 1  -1627.605,-144.77362 A 73.827164 73.827164 0 1 1  -1479.9507 -144.77362 z"
         sodipodi:ry="73.827164"
         sodipodi:rx="73.827164"
         sodipodi:cy="-144.77362"
         sodipodi:cx="-1553.7778"
         id="path9448"
         style="fill:#e9f4c9;fill-opacity:1;stroke:#9c0;stroke-width:4.76303768;stroke-linecap:butt;stroke-linejoin:round;stroke-miterlimit:4;stroke-dasharray:none;stroke-opacity:1"
         sodipodi:type="arc" />
      <path
         sodipodi:nodetypes="ccccccccccc"
         id="path9450"
         d="M 372.57009,88.16933 C 370.33123,89.161806 367.05323,92.700663 366.15585,94.759993 C 365.24248,96.98159 364.3728,99.282573 364.39029,101.67006 C 365.13489,99.125534 366.15314,96.450978 368.46587,94.782252 C 370.62613,93.173845 372.33269,92.40732 375.16003,92.83606 C 373.99742,94.037685 373.52569,94.716538 372.36309,95.918167 C 375.51764,94.745523 378.9751,95.460653 382.11866,96.280121 C 382.86089,96.375959 384.19959,96.994291 384.57614,96.726325 C 383.27214,92.964688 382.53737,88.997957 382.7986,85.036278 C 381.40686,86.457068 380.979,86.962132 379.58726,88.382921 C 376.91297,87.366577 375.203,87.068355 372.57009,88.16933 z "
         style="fill:#9c0;fill-opacity:1;stroke:#bdc5a4;stroke-width:0.93766552;stroke-linecap:butt;stroke-linejoin:miter;stroke-miterlimit:19.70000076;stroke-dasharray:none;stroke-opacity:1" />
    </g>
    <g
       id="g10440"
       inkscape:export-filename="C:\Program\ReposServer\html\repos\style\commands\32x32\download.png"
       inkscape:export-xdpi="90"
       inkscape:export-ydpi="90"
       transform="translate(-0.150596,-4.227146e-3)">
      <path
         transform="matrix(0.20995,0,0,0.20995,617.8562,279.3013)"
         d="M -1479.9507 -144.77362 A 73.827164 73.827164 0 1 1  -1627.605,-144.77362 A 73.827164 73.827164 0 1 1  -1479.9507 -144.77362 z"
         sodipodi:ry="73.827164"
         sodipodi:rx="73.827164"
         sodipodi:cy="-144.77362"
         sodipodi:cx="-1553.7778"
         id="path9454"
         style="fill:#e9f4c9;fill-opacity:1;stroke:#9c0;stroke-width:4.76303005;stroke-linecap:butt;stroke-linejoin:round;stroke-miterlimit:4;stroke-dasharray:none;stroke-opacity:1"
         sodipodi:type="arc" />
      <path
         sodipodi:nodetypes="cccccccccccc"
         id="path9456"
         d="M 287.03673,242.0519 L 287.03673,248.64092 L 282.02502,248.64092 L 291.59001,257.87428 L 291.64171,257.92429 L 291.68997,257.87428 L 301.25496,248.64092 L 296.24324,248.64092 L 296.24324,242.0519 L 295.17817,242.0519 L 288.10181,242.0519 L 287.03673,242.0519 z "
         style="fill:#9c0;fill-opacity:1;fill-rule:evenodd;stroke:#c4c4c4;stroke-width:0.9999997;stroke-linecap:butt;stroke-linejoin:miter;stroke-miterlimit:4;stroke-dasharray:none;stroke-opacity:1" />
    </g>
    <g
       id="g9458"
       transform="matrix(0.911765,0,0,0.911765,24.75156,167.3089)"
       inkscape:export-filename="C:\Program\ReposServer\html\repos\style\commands\32x32\view.png"
       inkscape:export-xdpi="90"
       inkscape:export-ydpi="90">
      <path
         transform="matrix(0.230268,0,0,0.230268,650.337,166.7017)"
         d="M -1479.9507 -144.77362 A 73.827164 73.827164 0 1 1  -1627.605,-144.77362 A 73.827164 73.827164 0 1 1  -1479.9507 -144.77362 z"
         sodipodi:ry="73.827164"
         sodipodi:rx="73.827164"
         sodipodi:cy="-144.77362"
         sodipodi:cx="-1553.7778"
         id="path9460"
         style="fill:#e9f4c9;fill-opacity:1;stroke:#9c0;stroke-width:4.76305103;stroke-linecap:butt;stroke-linejoin:round;stroke-miterlimit:4;stroke-dasharray:none;stroke-opacity:1"
         sodipodi:type="arc" />
      <g
         id="g9462">
        <rect
           style="fill:#e9f4c9;fill-opacity:1;stroke:#9c0;stroke-width:1.09677327;stroke-opacity:1"
           width="14.135994"
           height="18.656952"
           x="285.4837"
           y="124.03651"
           id="rect9464" />
        <g
           id="g9466">
          <path
             id="path9468"
             d="M 286.73216,127.94344 L 298.37121,127.94344"
             style="fill:black;fill-opacity:0;fill-rule:evenodd;stroke:#c4c4c4;stroke-width:1.09677327;stroke-linecap:butt;stroke-linejoin:miter;stroke-miterlimit:4;stroke-dasharray:none;stroke-opacity:1" />
          <path
             id="path9470"
             d="M 286.73216,130.65422 L 298.37121,130.65422"
             style="fill:black;fill-opacity:0;fill-rule:evenodd;stroke:#c4c4c4;stroke-width:1.09677327;stroke-linecap:butt;stroke-linejoin:miter;stroke-miterlimit:4;stroke-dasharray:none;stroke-opacity:1" />
          <path
             id="path9472"
             d="M 286.73216,133.36503 L 298.37121,133.36503"
             style="fill:black;fill-opacity:0;fill-rule:evenodd;stroke:#c4c4c4;stroke-width:1.09677327;stroke-linecap:butt;stroke-linejoin:miter;stroke-miterlimit:4;stroke-dasharray:none;stroke-opacity:1" />
          <path
             id="path9474"
             d="M 286.73216,136.07581 L 298.37121,136.07581"
             style="fill:black;fill-opacity:0;fill-rule:evenodd;stroke:#c4c4c4;stroke-width:1.09677327;stroke-linecap:butt;stroke-linejoin:miter;stroke-miterlimit:4;stroke-dasharray:none;stroke-opacity:1" />
          <path
             id="path9476"
             d="M 286.73216,138.78661 L 298.37121,138.78661"
             style="fill:black;fill-opacity:0;fill-rule:evenodd;stroke:#c4c4c4;stroke-width:1.09677327;stroke-linecap:butt;stroke-linejoin:miter;stroke-miterlimit:4;stroke-dasharray:none;stroke-opacity:1" />
        </g>
      </g>
    </g>
    <g
       id="g9478"
       transform="matrix(0.904101,0,0,-0.904101,67.85419,373.1768)"
       inkscape:export-filename="C:\Program\ReposServer\html\repos\style\commands\32x32\upload.png"
       inkscape:export-xdpi="90"
       inkscape:export-ydpi="90">
      <path
         transform="matrix(0.23222,0,0,0.23222,653.6683,126.8284)"
         d="M -1479.9507 -144.77362 A 73.827164 73.827164 0 1 1  -1627.605,-144.77362 A 73.827164 73.827164 0 1 1  -1479.9507 -144.77362 z"
         sodipodi:ry="73.827164"
         sodipodi:rx="73.827164"
         sodipodi:cy="-144.77362"
         sodipodi:cx="-1553.7778"
         id="path9480"
         style="fill:#e9f4c9;fill-opacity:1;stroke:#9c0;stroke-width:4.76303005;stroke-linecap:butt;stroke-linejoin:round;stroke-miterlimit:4;stroke-dasharray:none;stroke-opacity:1"
         sodipodi:type="arc" />
      <path
         sodipodi:nodetypes="cccccccccccc"
         id="path9482"
         d="M 287.75848,85.627938 L 287.75848,92.915853 L 282.21517,92.915853 L 292.79473,103.12861 L 292.85192,103.18393 L 292.90529,103.12861 L 303.48485,92.915853 L 297.94153,92.915853 L 297.94153,85.627938 L 296.76349,85.627938 L 288.93653,85.627938 L 287.75848,85.627938 z "
         style="fill:#9c0;fill-opacity:1;fill-rule:evenodd;stroke:#c4c4c4;stroke-width:1.10607076;stroke-linecap:butt;stroke-linejoin:miter;stroke-miterlimit:4;stroke-dasharray:none;stroke-opacity:1" />
    </g>
    <g
       id="g9484"
       transform="matrix(0.911761,0,0,0.911761,105.7411,123.1799)"
       inkscape:export-filename="C:\Program\ReposServer\html\repos\style\commands\32x32\download_lock.png"
       inkscape:export-xdpi="90"
       inkscape:export-ydpi="90">
      <g
         transform="matrix(0.991599,0,0,0.991599,3.557135,89.3393)"
         id="g9486">
        <path
           sodipodi:type="arc"
           style="fill:#e9f4c9;fill-opacity:1;stroke:#9c0;stroke-width:4.76302862;stroke-linecap:butt;stroke-linejoin:round;stroke-miterlimit:4;stroke-dasharray:none;stroke-opacity:1"
           id="path9488"
           sodipodi:cx="-1553.7778"
           sodipodi:cy="-144.77362"
           sodipodi:rx="73.827164"
           sodipodi:ry="73.827164"
           d="M -1479.9507 -144.77362 A 73.827164 73.827164 0 1 1  -1627.605,-144.77362 A 73.827164 73.827164 0 1 1  -1479.9507 -144.77362 z"
           transform="matrix(0.23222,0,0,0.23222,653.6683,126.8284)" />
        <path
           style="fill:#9c0;fill-opacity:1;fill-rule:evenodd;stroke:#c4c4c4;stroke-width:1.10607052;stroke-linecap:butt;stroke-linejoin:miter;stroke-miterlimit:4;stroke-dasharray:none;stroke-opacity:1"
           d="M 287.75848,85.627938 L 287.75848,92.915853 L 282.21517,92.915853 L 292.79473,103.12861 L 292.85192,103.18393 L 292.90529,103.12861 L 303.48485,92.915853 L 297.94153,92.915853 L 297.94153,85.627938 L 296.76349,85.627938 L 288.93653,85.627938 L 287.75848,85.627938 z "
           id="path9490"
           sodipodi:nodetypes="cccccccccccc" />
      </g>
      <g
         transform="translate(-0.625,-0.625)"
         id="g9492">
        <path
           style="fill:none;fill-rule:evenodd;stroke:black;stroke-width:1.09677863px;stroke-linecap:butt;stroke-linejoin:miter;stroke-opacity:1"
           d="M 300.96944,179.43882 C 304.51971,179.43882 303.89638,185.44922 303.89638,185.44922 M 301.0447,179.43882 C 297.49443,179.43882 298.11776,185.44922 298.11776,185.44922"
           id="path9494" />
        <rect
           style="fill:#fc0;fill-opacity:1;stroke:black;stroke-width:1.09677899;stroke-linecap:butt;stroke-linejoin:miter;stroke-miterlimit:4;stroke-dasharray:none;stroke-opacity:1"
           id="rect9496"
           width="7.2282033"
           height="7.5293779"
           x="297.39297"
           y="185.12625" />
      </g>
    </g>
    <g
       id="g9498"
       transform="matrix(0.911761,0,0,0.911761,24.34376,170.8461)"
       inkscape:export-filename="C:\Program\ReposServer\html\repos\style\commands\32x32\unlock.png"
       inkscape:export-xdpi="90"
       inkscape:export-ydpi="90">
      <path
         transform="matrix(0.230269,0,0,0.230269,650.7871,206.6991)"
         d="M -1479.9507 -144.77362 A 73.827164 73.827164 0 1 1  -1627.605,-144.77362 A 73.827164 73.827164 0 1 1  -1479.9507 -144.77362 z"
         sodipodi:ry="73.827164"
         sodipodi:rx="73.827164"
         sodipodi:cy="-144.77362"
         sodipodi:cx="-1553.7778"
         id="path9500"
         style="fill:#e9f4c9;fill-opacity:1;stroke:#9c0;stroke-width:4.76302671;stroke-linecap:butt;stroke-linejoin:round;stroke-miterlimit:4;stroke-dasharray:none;stroke-opacity:1"
         sodipodi:type="arc" />
      <g
         transform="translate(0.448532,39.99724)"
         id="g9502">
        <rect
           style="fill:#e9f4c9;fill-opacity:1;stroke:#9c0;stroke-width:1.09677839;stroke-opacity:1"
           width="14.135994"
           height="18.656952"
           x="285.4837"
           y="124.03651"
           id="rect9504" />
        <g
           id="g9506">
          <path
             id="path9508"
             d="M 286.73216,127.94344 L 298.37121,127.94344"
             style="fill:black;fill-opacity:0;fill-rule:evenodd;stroke:#c4c4c4;stroke-width:1.09677839;stroke-linecap:butt;stroke-linejoin:miter;stroke-miterlimit:4;stroke-dasharray:none;stroke-opacity:1" />
          <path
             id="path9510"
             d="M 286.73216,130.65422 L 298.37121,130.65422"
             style="fill:black;fill-opacity:0;fill-rule:evenodd;stroke:#c4c4c4;stroke-width:1.09677839;stroke-linecap:butt;stroke-linejoin:miter;stroke-miterlimit:4;stroke-dasharray:none;stroke-opacity:1" />
          <path
             id="path9512"
             d="M 286.73216,133.36503 L 298.37121,133.36503"
             style="fill:black;fill-opacity:0;fill-rule:evenodd;stroke:#c4c4c4;stroke-width:1.09677839;stroke-linecap:butt;stroke-linejoin:miter;stroke-miterlimit:4;stroke-dasharray:none;stroke-opacity:1" />
          <path
             id="path9514"
             d="M 286.73216,136.07581 L 298.37121,136.07581"
             style="fill:black;fill-opacity:0;fill-rule:evenodd;stroke:#c4c4c4;stroke-width:1.09677839;stroke-linecap:butt;stroke-linejoin:miter;stroke-miterlimit:4;stroke-dasharray:none;stroke-opacity:1" />
          <path
             id="path9516"
             d="M 286.73216,138.78661 L 298.37121,138.78661"
             style="fill:black;fill-opacity:0;fill-rule:evenodd;stroke:#c4c4c4;stroke-width:1.09677839;stroke-linecap:butt;stroke-linejoin:miter;stroke-miterlimit:4;stroke-dasharray:none;stroke-opacity:1" />
        </g>
      </g>
      <rect
         y="176.09811"
         x="295.82108"
         height="7.5293779"
         width="7.2282033"
         id="rect9518"
         style="fill:#fc0;fill-opacity:1;stroke:black;stroke-width:1.09677839;stroke-linecap:butt;stroke-linejoin:miter;stroke-miterlimit:4;stroke-dasharray:none;stroke-opacity:1" />
      <path
         id="path9520"
         d="M 304.5639,170.2339 C 308.11417,170.2339 307.49084,176.2443 307.49084,176.2443 M 304.63916,170.2339 C 301.08889,170.2339 301.71222,176.2443 301.71222,176.2443"
         style="fill:none;fill-rule:evenodd;stroke:black;stroke-width:1.09677804px;stroke-linecap:butt;stroke-linejoin:miter;stroke-opacity:1" />
    </g>
    <g
       id="g9522"
       transform="matrix(0.911761,0,0,0.911761,28.09179,170.8461)"
       inkscape:export-filename="C:\Program\ReposServer\html\repos\style\commands\32x32\edit.png"
       inkscape:export-xdpi="90"
       inkscape:export-ydpi="90">
      <path
         transform="matrix(0.230269,0,0,-0.230269,691.7871,140.0253)"
         d="M -1479.9507 -144.77362 A 73.827164 73.827164 0 1 1  -1627.605,-144.77362 A 73.827164 73.827164 0 1 1  -1479.9507 -144.77362 z"
         sodipodi:ry="73.827164"
         sodipodi:rx="73.827164"
         sodipodi:cy="-144.77362"
         sodipodi:cx="-1553.7778"
         id="path9524"
         style="fill:#e9f4c9;fill-opacity:1;stroke:#9c0;stroke-width:4.76302671;stroke-linecap:butt;stroke-linejoin:round;stroke-miterlimit:4;stroke-dasharray:none;stroke-opacity:1"
         sodipodi:type="arc" />
      <g
         id="g9526">
        <g
           id="g9528"
           transform="translate(1,0)">
          <g
             id="g9530"
             transform="matrix(0.87964,0.47564,-0.47564,0.87964,90.15794,-148.95)"
             style="fill:white;fill-opacity:1;stroke:#9c0;stroke-width:1.09677839;stroke-opacity:1">
            <path
               style="fill:white;fill-opacity:1;fill-rule:evenodd;stroke:#9c0;stroke-width:1.09677839px;stroke-linecap:butt;stroke-linejoin:miter;stroke-opacity:1"
               d="M 369.8293,158.6815 L 369.8293,173.6815 L 367.06477,178.6815 L 364.30025,173.6815 L 364.30025,158.6815 L 369.8293,158.6815 z "
               id="path9532"
               sodipodi:nodetypes="ccccc" />
            <path
               style="fill:white;fill-opacity:1;fill-rule:evenodd;stroke:#9c0;stroke-width:1.09677839px;stroke-linecap:butt;stroke-linejoin:miter;stroke-opacity:1"
               d="M 364.33677,173.73781 L 367.16519,172.94232 L 369.86104,173.69362"
               id="path9534"
               sodipodi:nodetypes="ccc" />
          </g>
        </g>
        <path
           style="fill:none;fill-rule:evenodd;stroke:#9c0;stroke-width:1.09677839px;stroke-linecap:butt;stroke-linejoin:miter;stroke-opacity:1"
           d="M 332.25,177.61218 L 338.88388,165.53635"
           id="path9536"
           sodipodi:nodetypes="cc" />
      </g>
    </g>
    <g
       id="g14008"
       inkscape:export-filename="C:\WWW\view.png"
       inkscape:export-xdpi="90"
       inkscape:export-ydpi="90"
       transform="translate(-3.361394e-5,1.29872)">
      <g
         id="g14060"
         inkscape:export-filename="C:\WWW\view.png"
         inkscape:export-xdpi="90"
         inkscape:export-ydpi="90">
        <path
           sodipodi:type="arc"
           style="fill:#e9f4c9;fill-opacity:1;stroke:#9c0;stroke-width:4.76305103;stroke-linecap:butt;stroke-linejoin:round;stroke-miterlimit:4;stroke-dasharray:none;stroke-opacity:1"
           id="path10446"
           sodipodi:cx="-1553.7778"
           sodipodi:cy="-144.77362"
           sodipodi:rx="73.827164"
           sodipodi:ry="73.827164"
           d="M -1479.9507 -144.77362 A 73.827164 73.827164 0 1 1  -1627.605,-144.77362 A 73.827164 73.827164 0 1 1  -1479.9507 -144.77362 z"
           transform="matrix(0.20995,0,0,0.20995,699.9661,358.0075)" />
        <rect
           style="fill:#e9f4c9;fill-opacity:1;stroke:#9c0;stroke-width:0.99999946;stroke-opacity:1"
           width="12.888704"
           height="17.010756"
           x="367.30566"
           y="319.10684"
           id="rect10450" />
        <g
           transform="matrix(0.911765,0,0,0.911765,107.0116,206.0147)"
           id="g10452">
          <path
             id="path10454"
             d="M 286.73216,127.94344 L 298.37121,127.94344"
             style="fill:black;fill-opacity:0;fill-rule:evenodd;stroke:#c4c4c4;stroke-width:1.09677327;stroke-linecap:butt;stroke-linejoin:miter;stroke-miterlimit:4;stroke-dasharray:none;stroke-opacity:1" />
          <path
             id="path10456"
             d="M 286.73216,130.65422 L 298.37121,130.65422"
             style="fill:black;fill-opacity:0;fill-rule:evenodd;stroke:#c4c4c4;stroke-width:1.09677327;stroke-linecap:butt;stroke-linejoin:miter;stroke-miterlimit:4;stroke-dasharray:none;stroke-opacity:1" />
          <path
             id="path10458"
             d="M 286.73216,133.36503 L 298.37121,133.36503"
             style="fill:black;fill-opacity:0;fill-rule:evenodd;stroke:#c4c4c4;stroke-width:1.09677327;stroke-linecap:butt;stroke-linejoin:miter;stroke-miterlimit:4;stroke-dasharray:none;stroke-opacity:1" />
          <path
             id="path10460"
             d="M 286.73216,136.07581 L 298.37121,136.07581"
             style="fill:black;fill-opacity:0;fill-rule:evenodd;stroke:#c4c4c4;stroke-width:1.09677327;stroke-linecap:butt;stroke-linejoin:miter;stroke-miterlimit:4;stroke-dasharray:none;stroke-opacity:1" />
          <path
             id="path10462"
             d="M 286.73216,138.78661 L 298.37121,138.78661"
             style="fill:black;fill-opacity:0;fill-rule:evenodd;stroke:#c4c4c4;stroke-width:1.09677327;stroke-linecap:butt;stroke-linejoin:miter;stroke-miterlimit:4;stroke-dasharray:none;stroke-opacity:1" />
        </g>
        <g
           transform="translate(0,2)"
           id="g14056">
          <path
             transform="matrix(0.777778,0,0,0.777778,173.3749,79.91379)"
             d="M 263.25 315.73718 A 5.625 5.625 0 1 1  252,315.73718 A 5.625 5.625 0 1 1  263.25 315.73718 z"
             sodipodi:ry="5.625"
             sodipodi:rx="5.625"
             sodipodi:cy="315.73718"
             sodipodi:cx="257.625"
             id="path10464"
             style="fill:white;fill-opacity:0.51315792;stroke:#9c0;stroke-width:1.28571439;stroke-linecap:butt;stroke-linejoin:miter;stroke-miterlimit:4;stroke-dasharray:none;stroke-opacity:1"
             sodipodi:type="arc" />
          <path
             id="path12236"
             d="M 377.20091,327.49715 L 385.04909,332.97721"
             style="fill:none;fill-rule:evenodd;stroke:#9c0;stroke-width:2;stroke-linecap:butt;stroke-linejoin:miter;stroke-miterlimit:4;stroke-dasharray:none;stroke-opacity:1" />
        </g>
      </g>
    </g>
    <g
       id="g10172"
       transform="matrix(0.976276,0,0,0.997615,-662.1099,-279.654)">
      <path
         id="path7461"
         d="M 1042.0132,700.95607 C 1038.3129,700.95607 1036.8256,703.96198 1038.6978,707.7035 L 1058.2606,746.811 C 1060.1328,750.55252 1064.6397,753.5781 1068.34,753.5781 L 1100.7938,753.5781 L 1146.5712,753.5781 L 1179.0251,753.5781 C 1182.7253,753.5781 1182.6554,750.55253 1178.8679,746.811 L 1139.2727,707.7035 C 1135.4851,703.96198 1129.4508,700.95607 1125.7505,700.95607 L 1120.2444,700.95607 L 1047.5193,700.95607 L 1042.0132,700.95607 z "
         style="fill:#c4c4c4;fill-opacity:1;stroke:#9c0;stroke-width:1.01328719;stroke-linecap:butt;stroke-linejoin:miter;stroke-miterlimit:4;stroke-dasharray:none;stroke-opacity:1" />
      <path
         id="path2745"
         d="M 1025.1813,686.31426 C 1019.7554,686.31426 1017.8811,689.99748 1020.98,694.57057 L 1053.3735,742.37423 C 1053.6948,742.84847 1054.0787,743.31717 1054.4753,743.76913 L 1057.2982,747.93499 C 1057.698,748.52501 1058.17,749.09624 1058.6842,749.65034 L 1167.1791,749.65034 C 1166.943,749.09624 1166.6402,748.52501 1166.2404,747.93499 L 1133.9746,700.31983 C 1130.8883,695.76517 1124.0358,692.10122 1118.6317,692.10122 L 1054.1297,692.10122 C 1050.6136,688.73691 1045.2681,686.31426 1040.8595,686.31426 L 1025.1813,686.31426 z "
         style="fill:#c4c4c4;fill-opacity:1;stroke:#9c0;stroke-width:1.01328719;stroke-linecap:butt;stroke-linejoin:miter;stroke-miterlimit:4;stroke-dasharray:none;stroke-opacity:1" />
      <rect
         transform="matrix(-0.536046,-0.844189,0.997734,6.728129e-2,0,0)"
         y="661.15601"
         x="-831.64038"
         height="90.230759"
         width="64.794968"
         id="rect5630"
         style="fill:white;fill-opacity:1;stroke:#c4c4c4;stroke-width:1.12851775;stroke-linecap:butt;stroke-linejoin:miter;stroke-miterlimit:4;stroke-dasharray:none;stroke-opacity:1" />
      <rect
         transform="matrix(0.941001,0.338405,-8.703482e-2,0.996205,0,0)"
         y="282.75381"
         x="1179.6376"
         height="47.316753"
         width="68.987671"
         id="rect5640"
         style="fill:#fea;fill-opacity:1;stroke:#a80;stroke-width:1.03049421;stroke-linecap:butt;stroke-linejoin:miter;stroke-miterlimit:4;stroke-dasharray:none;stroke-opacity:1" />
      <rect
         transform="matrix(0.999112,4.214345e-2,0.5634,0.826184,0,0)"
         y="810.3089"
         x="584.15863"
         height="54.240631"
         width="97.602379"
         id="rect5638"
         style="fill:#faa;fill-opacity:1;stroke:#916f6f;stroke-width:1.13168287;stroke-linecap:butt;stroke-linejoin:miter;stroke-miterlimit:4;stroke-dasharray:none;stroke-opacity:1" />
      <rect
         transform="matrix(0.997359,-7.262382e-2,0.658177,0.752863,0,0)"
         y="969.15735"
         x="372.14267"
         height="62.037205"
         width="84.523476"
         id="rect5636"
         style="fill:#e3e2db;fill-opacity:1;stroke:#aca793;stroke-width:1.13382947;stroke-linecap:butt;stroke-linejoin:miter;stroke-miterlimit:4;stroke-dasharray:none;stroke-opacity:1" />
      <rect
         transform="matrix(0.962518,0.271218,0.143237,0.989688,0,0)"
         y="423.8092"
         x="1002.761"
         height="30.348063"
         width="60.98822"
         id="rect5642"
         style="fill:#c8beb7;fill-opacity:1;stroke:#917c6f;stroke-width:1.06003511;stroke-linecap:butt;stroke-linejoin:miter;stroke-miterlimit:4;stroke-dasharray:none;stroke-opacity:1" />
      <rect
         transform="matrix(1,0,0.603238,0.797561,0,0)"
         y="892.52887"
         x="560.07373"
         height="47.878471"
         width="59.535984"
         id="rect5644"
         style="fill:#faa;fill-opacity:1;stroke:#ac9393;stroke-width:1.13462043;stroke-linecap:butt;stroke-linejoin:miter;stroke-miterlimit:4;stroke-dasharray:none;stroke-opacity:1" />
      <rect
         transform="matrix(1,0,0.603238,0.797561,0,0)"
         y="897.3587"
         x="491.3447"
         height="44.098591"
         width="51.875095"
         id="rect5646"
         style="fill:#e9ddaf;fill-opacity:1;stroke:#d3bc5f;stroke-width:1.13462043;stroke-linecap:butt;stroke-linejoin:miter;stroke-miterlimit:4;stroke-dasharray:none;stroke-opacity:1" />
      <path
         id="path2749"
         d="M 1044.4143,700.18626 C 1040.714,700.18626 1039.2267,703.19217 1041.0988,706.93369 L 1060.6617,746.04119 C 1062.5339,749.78271 1067.0408,752.80829 1070.7411,752.80829 L 1103.1949,752.80829 L 1148.9723,752.80829 L 1181.4262,752.80829 C 1185.1264,752.80829 1185.0565,749.78272 1181.2689,746.04119 L 1141.6738,706.93369 C 1137.8862,703.19217 1131.8518,700.18626 1128.1516,700.18626 L 1122.6455,700.18626 L 1049.9203,700.18626 L 1044.4143,700.18626 z "
         style="fill:#e9f4c9;fill-opacity:1;stroke:#9c0;stroke-width:1.01328719;stroke-linecap:butt;stroke-linejoin:miter;stroke-miterlimit:4;stroke-dasharray:none;stroke-opacity:1" />
    </g>
    <path
       style="opacity:1;fill:#c4c4c4;fill-opacity:1;stroke:#4d4d4d;stroke-width:0.99999934;stroke-linecap:butt;stroke-linejoin:miter;stroke-miterlimit:4;stroke-dasharray:none;stroke-opacity:1"
       d="M 539.0564,198.36223 C 536.3993,198.36222 534.1862,201.81798 533.6827,206.38304 C 533.6456,206.35644 533.6094,206.3372 533.57,206.3372 C 533.2545,206.33723 533.0063,207.25301 533.0063,208.35386 C 533.0063,209.45469 533.2545,210.32467 533.57,210.32467 C 533.6094,210.32467 533.6455,210.30544 533.6827,210.27885 C 533.8664,211.9629 534.2979,213.5071 534.8852,214.7705 C 532.8011,215.50607 531.0713,216.76466 530,218.34549 L 530,220.36214 L 548,220.36214 L 548,218.20797 C 546.9264,216.70531 545.2749,215.47983 543.2651,214.7705 C 543.8525,213.50709 544.2463,211.96288 544.43,210.27885 C 544.4672,210.30546 544.5034,210.32467 544.5428,210.32467 C 544.8582,210.32467 545.1065,209.45469 545.1065,208.35386 C 545.1065,207.25303 544.8582,206.3372 544.5428,206.3372 C 544.5034,206.33723 544.4672,206.35646 544.43,206.38304 C 543.9266,201.81797 541.7135,198.36223 539.0564,198.36223 z "
       id="path2131" />
    <path
       style="opacity:1;fill:#c4c4c4;fill-opacity:1;stroke:#4d4d4d;stroke-width:0.99999934;stroke-linecap:butt;stroke-linejoin:miter;stroke-miterlimit:4;stroke-dasharray:none;stroke-opacity:1"
       d="M 581.0564,198.36223 C 578.3993,198.36222 576.1862,201.81798 575.6827,206.38304 C 575.6456,206.35644 575.6094,206.3372 575.57,206.3372 C 575.2545,206.33723 575.0063,207.25301 575.0063,208.35386 C 575.0063,209.45469 575.2545,210.32467 575.57,210.32467 C 575.6094,210.32467 575.6455,210.30544 575.6827,210.27885 C 575.8664,211.9629 576.2979,213.5071 576.8852,214.7705 C 574.8011,215.50607 573.0713,216.76466 572,218.34549 L 572,220.36214 L 590,220.36214 L 590,218.20797 C 588.9264,216.70531 587.2749,215.47983 585.2651,214.7705 C 585.8525,213.50709 586.2463,211.96288 586.43,210.27885 C 586.4672,210.30546 586.5034,210.32467 586.5428,210.32467 C 586.8582,210.32467 587.1065,209.45469 587.1065,208.35386 C 587.1065,207.25303 586.8582,206.3372 586.5428,206.3372 C 586.5034,206.33723 586.4672,206.35646 586.43,206.38304 C 585.9266,201.81797 583.7135,198.36223 581.0564,198.36223 z "
       id="path2133" />
    <path
       style="opacity:1;fill:#c4c4c4;fill-opacity:1;stroke:#4d4d4d;stroke-width:0.99999934;stroke-linecap:butt;stroke-linejoin:miter;stroke-miterlimit:4;stroke-dasharray:none;stroke-opacity:1"
       d="M 627.0564,201.36223 C 624.3993,201.36222 622.1862,204.81798 621.6827,209.38304 C 621.6456,209.35644 621.6094,209.3372 621.57,209.3372 C 621.2545,209.33723 621.0063,210.25301 621.0063,211.35386 C 621.0063,212.45469 621.2545,213.32467 621.57,213.32467 C 621.6094,213.32467 621.6455,213.30544 621.6827,213.27885 C 621.8664,214.9629 622.2979,216.5071 622.8852,217.7705 C 620.8011,218.50607 619.0713,219.76466 618,221.34549 L 618,223.36214 L 636,223.36214 L 636,221.20797 C 634.9264,219.70531 633.2749,218.47983 631.2651,217.7705 C 631.8525,216.50709 632.2463,214.96288 632.43,213.27885 C 632.4672,213.30546 632.5034,213.32467 632.5428,213.32467 C 632.8582,213.32467 633.1065,212.45469 633.1065,211.35386 C 633.1065,210.25303 632.8582,209.3372 632.5428,209.3372 C 632.5034,209.33723 632.4672,209.35646 632.43,209.38304 C 631.9266,204.81797 629.7135,201.36223 627.0564,201.36223 z "
       id="path2135" />
    <path
       sodipodi:type="arc"
       style="opacity:1;fill:white;fill-opacity:1;stroke:black;stroke-width:1.74104857;stroke-linecap:butt;stroke-linejoin:miter;stroke-miterlimit:4;stroke-dasharray:none;stroke-opacity:1"
       id="path2129"
       sodipodi:cx="1127.5"
       sodipodi:cy="230.86218"
       sodipodi:rx="102.5"
       sodipodi:ry="48.5"
       d="M 1230 230.86218 A 102.5 48.5 0 1 1  1025,230.86218 A 102.5 48.5 0 1 1  1230 230.86218 z"
       transform="matrix(1,0,0,0.329897,-558,157.2015)" />
  </g>
</svg>
